G04 (created by PCBNEW-RS274X (2011-05-25)-stable) date Sun 14 Oct 2012 04:31:26 PM CDT*
G01*
G70*
G90*
%MOIN*%
G04 Gerber Fmt 3.4, Leading zero omitted, Abs format*
%FSLAX34Y34*%
G04 APERTURE LIST*
%ADD10C,0.006000*%
%ADD11C,0.007000*%
%ADD12C,0.005000*%
%ADD13C,0.012000*%
%ADD14C,0.007500*%
%ADD15C,0.008000*%
%ADD16C,0.015000*%
%ADD17C,0.011300*%
G04 APERTURE END LIST*
G54D10*
G54D11*
X05257Y-19174D02*
X05271Y-19193D01*
X05314Y-19212D01*
X05343Y-19212D01*
X05386Y-19193D01*
X05414Y-19155D01*
X05429Y-19117D01*
X05443Y-19040D01*
X05443Y-18983D01*
X05429Y-18907D01*
X05414Y-18869D01*
X05386Y-18831D01*
X05343Y-18812D01*
X05314Y-18812D01*
X05271Y-18831D01*
X05257Y-18850D01*
X04957Y-19174D02*
X04971Y-19193D01*
X05014Y-19212D01*
X05043Y-19212D01*
X05086Y-19193D01*
X05114Y-19155D01*
X05129Y-19117D01*
X05143Y-19040D01*
X05143Y-18983D01*
X05129Y-18907D01*
X05114Y-18869D01*
X05086Y-18831D01*
X05043Y-18812D01*
X05014Y-18812D01*
X04971Y-18831D01*
X04957Y-18850D01*
X04614Y-19193D02*
X04571Y-19212D01*
X04500Y-19212D01*
X04471Y-19193D01*
X04457Y-19174D01*
X04442Y-19136D01*
X04442Y-19098D01*
X04457Y-19060D01*
X04471Y-19040D01*
X04500Y-19021D01*
X04557Y-19002D01*
X04585Y-18983D01*
X04600Y-18964D01*
X04614Y-18926D01*
X04614Y-18888D01*
X04600Y-18850D01*
X04585Y-18831D01*
X04557Y-18812D01*
X04485Y-18812D01*
X04442Y-18831D01*
X04328Y-19098D02*
X04185Y-19098D01*
X04356Y-19212D02*
X04256Y-18812D01*
X04156Y-19212D01*
X04057Y-19060D02*
X03828Y-19060D01*
X03586Y-19002D02*
X03543Y-19021D01*
X03528Y-19040D01*
X03514Y-19079D01*
X03514Y-19136D01*
X03528Y-19174D01*
X03543Y-19193D01*
X03571Y-19212D01*
X03686Y-19212D01*
X03686Y-18812D01*
X03586Y-18812D01*
X03557Y-18831D01*
X03543Y-18850D01*
X03528Y-18888D01*
X03528Y-18926D01*
X03543Y-18964D01*
X03557Y-18983D01*
X03586Y-19002D01*
X03686Y-19002D01*
X03328Y-19021D02*
X03328Y-19212D01*
X03428Y-18812D02*
X03328Y-19021D01*
X03228Y-18812D01*
X02914Y-18793D02*
X03171Y-19307D01*
X02657Y-18831D02*
X02686Y-18812D01*
X02729Y-18812D01*
X02772Y-18831D01*
X02800Y-18869D01*
X02815Y-18907D01*
X02829Y-18983D01*
X02829Y-19040D01*
X02815Y-19117D01*
X02800Y-19155D01*
X02772Y-19193D01*
X02729Y-19212D01*
X02700Y-19212D01*
X02657Y-19193D01*
X02643Y-19174D01*
X02643Y-19040D01*
X02700Y-19040D01*
X02515Y-19212D02*
X02515Y-18812D01*
X02400Y-18812D01*
X02372Y-18831D01*
X02357Y-18850D01*
X02343Y-18888D01*
X02343Y-18945D01*
X02357Y-18983D01*
X02372Y-19002D01*
X02400Y-19021D01*
X02515Y-19021D01*
X02072Y-19212D02*
X02215Y-19212D01*
X02215Y-18812D01*
X02000Y-18945D02*
X01929Y-19212D01*
X01857Y-18945D01*
X01771Y-18812D02*
X01585Y-18812D01*
X01685Y-18964D01*
X01643Y-18964D01*
X01614Y-18983D01*
X01600Y-19002D01*
X01585Y-19040D01*
X01585Y-19136D01*
X01600Y-19174D01*
X01614Y-19193D01*
X01643Y-19212D01*
X01728Y-19212D01*
X01757Y-19193D01*
X01771Y-19174D01*
X01242Y-18793D02*
X01499Y-19307D01*
X01143Y-19212D02*
X01143Y-18812D01*
X01043Y-19098D01*
X00943Y-18812D01*
X00943Y-19212D01*
X00800Y-19212D02*
X00800Y-18812D01*
X00699Y-18812D02*
X00528Y-18812D01*
X00614Y-19212D02*
X00614Y-18812D01*
G54D12*
X19006Y-19242D02*
X19089Y-19075D01*
X19148Y-19242D02*
X19148Y-18892D01*
X19053Y-18892D01*
X19029Y-18908D01*
X19018Y-18925D01*
X19006Y-18958D01*
X19006Y-19008D01*
X19018Y-19042D01*
X19029Y-19058D01*
X19053Y-19075D01*
X19148Y-19075D01*
X18898Y-19208D02*
X18887Y-19225D01*
X18898Y-19242D01*
X18910Y-19225D01*
X18898Y-19208D01*
X18898Y-19242D01*
X18613Y-18892D02*
X18447Y-18892D01*
X18613Y-19242D01*
X18447Y-19242D01*
X18351Y-19242D02*
X18351Y-18892D01*
X18244Y-19242D02*
X18244Y-19058D01*
X18256Y-19025D01*
X18280Y-19008D01*
X18316Y-19008D01*
X18340Y-19025D01*
X18351Y-19042D01*
X18090Y-19242D02*
X18114Y-19225D01*
X18125Y-19208D01*
X18137Y-19175D01*
X18137Y-19075D01*
X18125Y-19042D01*
X18114Y-19025D01*
X18090Y-19008D01*
X18054Y-19008D01*
X18030Y-19025D01*
X18018Y-19042D01*
X18006Y-19075D01*
X18006Y-19175D01*
X18018Y-19208D01*
X18030Y-19225D01*
X18054Y-19242D01*
X18090Y-19242D01*
X17792Y-19008D02*
X17792Y-19242D01*
X17899Y-19008D02*
X17899Y-19192D01*
X17888Y-19225D01*
X17864Y-19242D01*
X17828Y-19242D01*
X17804Y-19225D01*
X17792Y-19208D01*
X17495Y-18925D02*
X17483Y-18908D01*
X17460Y-18892D01*
X17400Y-18892D01*
X17376Y-18908D01*
X17364Y-18925D01*
X17353Y-18958D01*
X17353Y-18992D01*
X17364Y-19042D01*
X17507Y-19242D01*
X17353Y-19242D01*
X17198Y-18892D02*
X17174Y-18892D01*
X17150Y-18908D01*
X17138Y-18925D01*
X17126Y-18958D01*
X17115Y-19025D01*
X17115Y-19108D01*
X17126Y-19175D01*
X17138Y-19208D01*
X17150Y-19225D01*
X17174Y-19242D01*
X17198Y-19242D01*
X17222Y-19225D01*
X17234Y-19208D01*
X17245Y-19175D01*
X17257Y-19108D01*
X17257Y-19025D01*
X17245Y-18958D01*
X17234Y-18925D01*
X17222Y-18908D01*
X17198Y-18892D01*
X16877Y-19242D02*
X17019Y-19242D01*
X16948Y-19242D02*
X16948Y-18892D01*
X16972Y-18942D01*
X16996Y-18975D01*
X17019Y-18992D01*
X16781Y-18925D02*
X16769Y-18908D01*
X16746Y-18892D01*
X16686Y-18892D01*
X16662Y-18908D01*
X16650Y-18925D01*
X16639Y-18958D01*
X16639Y-18992D01*
X16650Y-19042D01*
X16793Y-19242D01*
X16639Y-19242D01*
G54D13*
X16762Y-17918D02*
X16762Y-17318D01*
X16548Y-17918D02*
X16548Y-17604D01*
X16571Y-17546D01*
X16619Y-17518D01*
X16691Y-17518D01*
X16738Y-17546D01*
X16762Y-17575D01*
X16381Y-17518D02*
X16191Y-17518D01*
X16310Y-17318D02*
X16310Y-17832D01*
X16286Y-17889D01*
X16239Y-17918D01*
X16191Y-17918D01*
X16095Y-17518D02*
X15905Y-17518D01*
X16024Y-17318D02*
X16024Y-17832D01*
X16000Y-17889D01*
X15953Y-17918D01*
X15905Y-17918D01*
X15738Y-17518D02*
X15738Y-18118D01*
X15738Y-17546D02*
X15690Y-17518D01*
X15595Y-17518D01*
X15547Y-17546D01*
X15524Y-17575D01*
X15500Y-17632D01*
X15500Y-17804D01*
X15524Y-17861D01*
X15547Y-17889D01*
X15595Y-17918D01*
X15690Y-17918D01*
X15738Y-17889D01*
X15310Y-17889D02*
X15262Y-17918D01*
X15167Y-17918D01*
X15119Y-17889D01*
X15095Y-17832D01*
X15095Y-17804D01*
X15119Y-17746D01*
X15167Y-17718D01*
X15238Y-17718D01*
X15286Y-17689D01*
X15310Y-17632D01*
X15310Y-17604D01*
X15286Y-17546D01*
X15238Y-17518D01*
X15167Y-17518D01*
X15119Y-17546D01*
X14881Y-17861D02*
X14857Y-17889D01*
X14881Y-17918D01*
X14905Y-17889D01*
X14881Y-17861D01*
X14881Y-17918D01*
X14881Y-17546D02*
X14857Y-17575D01*
X14881Y-17604D01*
X14905Y-17575D01*
X14881Y-17546D01*
X14881Y-17604D01*
X14286Y-17289D02*
X14714Y-18061D01*
X13762Y-17289D02*
X14190Y-18061D01*
X13381Y-17518D02*
X13381Y-18004D01*
X13404Y-18061D01*
X13428Y-18089D01*
X13476Y-18118D01*
X13547Y-18118D01*
X13595Y-18089D01*
X13381Y-17889D02*
X13428Y-17918D01*
X13524Y-17918D01*
X13571Y-17889D01*
X13595Y-17861D01*
X13619Y-17804D01*
X13619Y-17632D01*
X13595Y-17575D01*
X13571Y-17546D01*
X13524Y-17518D01*
X13428Y-17518D01*
X13381Y-17546D01*
X13143Y-17918D02*
X13143Y-17518D01*
X13143Y-17318D02*
X13167Y-17346D01*
X13143Y-17375D01*
X13119Y-17346D01*
X13143Y-17318D01*
X13143Y-17375D01*
X12976Y-17518D02*
X12786Y-17518D01*
X12905Y-17318D02*
X12905Y-17832D01*
X12881Y-17889D01*
X12834Y-17918D01*
X12786Y-17918D01*
X12619Y-17918D02*
X12619Y-17318D01*
X12405Y-17918D02*
X12405Y-17604D01*
X12428Y-17546D01*
X12476Y-17518D01*
X12548Y-17518D01*
X12595Y-17546D01*
X12619Y-17575D01*
X11953Y-17518D02*
X11953Y-17918D01*
X12167Y-17518D02*
X12167Y-17832D01*
X12143Y-17889D01*
X12096Y-17918D01*
X12024Y-17918D01*
X11976Y-17889D01*
X11953Y-17861D01*
X11715Y-17918D02*
X11715Y-17318D01*
X11715Y-17546D02*
X11667Y-17518D01*
X11572Y-17518D01*
X11524Y-17546D01*
X11501Y-17575D01*
X11477Y-17632D01*
X11477Y-17804D01*
X11501Y-17861D01*
X11524Y-17889D01*
X11572Y-17918D01*
X11667Y-17918D01*
X11715Y-17889D01*
X11263Y-17861D02*
X11239Y-17889D01*
X11263Y-17918D01*
X11287Y-17889D01*
X11263Y-17861D01*
X11263Y-17918D01*
X10811Y-17889D02*
X10858Y-17918D01*
X10954Y-17918D01*
X11001Y-17889D01*
X11025Y-17861D01*
X11049Y-17804D01*
X11049Y-17632D01*
X11025Y-17575D01*
X11001Y-17546D01*
X10954Y-17518D01*
X10858Y-17518D01*
X10811Y-17546D01*
X10525Y-17918D02*
X10572Y-17889D01*
X10596Y-17861D01*
X10620Y-17804D01*
X10620Y-17632D01*
X10596Y-17575D01*
X10572Y-17546D01*
X10525Y-17518D01*
X10453Y-17518D01*
X10405Y-17546D01*
X10382Y-17575D01*
X10358Y-17632D01*
X10358Y-17804D01*
X10382Y-17861D01*
X10405Y-17889D01*
X10453Y-17918D01*
X10525Y-17918D01*
X10144Y-17918D02*
X10144Y-17518D01*
X10144Y-17575D02*
X10120Y-17546D01*
X10073Y-17518D01*
X10001Y-17518D01*
X09953Y-17546D01*
X09930Y-17604D01*
X09930Y-17918D01*
X09930Y-17604D02*
X09906Y-17546D01*
X09858Y-17518D01*
X09787Y-17518D01*
X09739Y-17546D01*
X09715Y-17604D01*
X09715Y-17918D01*
X09120Y-17289D02*
X09548Y-18061D01*
X09001Y-17518D02*
X08905Y-17918D01*
X08810Y-17632D01*
X08715Y-17918D01*
X08620Y-17518D01*
X08429Y-17918D02*
X08429Y-17518D01*
X08429Y-17318D02*
X08453Y-17346D01*
X08429Y-17375D01*
X08405Y-17346D01*
X08429Y-17318D01*
X08429Y-17375D01*
X08120Y-17918D02*
X08167Y-17889D01*
X08191Y-17832D01*
X08191Y-17318D01*
X07977Y-17518D02*
X07858Y-17918D01*
X07738Y-17518D02*
X07858Y-17918D01*
X07905Y-18061D01*
X07929Y-18089D01*
X07977Y-18118D01*
X07596Y-17518D02*
X07500Y-17918D01*
X07405Y-17632D01*
X07310Y-17918D01*
X07215Y-17518D01*
X07072Y-17518D02*
X06953Y-17918D01*
X06833Y-17518D02*
X06953Y-17918D01*
X07000Y-18061D01*
X07024Y-18089D01*
X07072Y-18118D01*
X06643Y-17918D02*
X06643Y-17518D01*
X06643Y-17632D02*
X06619Y-17575D01*
X06595Y-17546D01*
X06548Y-17518D01*
X06500Y-17518D01*
X06333Y-17918D02*
X06333Y-17518D01*
X06333Y-17575D02*
X06309Y-17546D01*
X06262Y-17518D01*
X06190Y-17518D01*
X06142Y-17546D01*
X06119Y-17604D01*
X06119Y-17918D01*
X06119Y-17604D02*
X06095Y-17546D01*
X06047Y-17518D01*
X05976Y-17518D01*
X05928Y-17546D01*
X05904Y-17604D01*
X05904Y-17918D01*
X05309Y-17289D02*
X05737Y-18061D01*
X05142Y-17918D02*
X05142Y-17318D01*
X04975Y-17746D01*
X04809Y-17318D01*
X04809Y-17918D01*
X04595Y-17889D02*
X04523Y-17918D01*
X04404Y-17918D01*
X04357Y-17889D01*
X04333Y-17861D01*
X04309Y-17804D01*
X04309Y-17746D01*
X04333Y-17689D01*
X04357Y-17661D01*
X04404Y-17632D01*
X04500Y-17604D01*
X04547Y-17575D01*
X04571Y-17546D01*
X04595Y-17489D01*
X04595Y-17432D01*
X04571Y-17375D01*
X04547Y-17346D01*
X04500Y-17318D01*
X04380Y-17318D01*
X04309Y-17346D01*
X04095Y-17918D02*
X04095Y-17318D01*
X03904Y-17318D01*
X03857Y-17346D01*
X03833Y-17375D01*
X03809Y-17432D01*
X03809Y-17518D01*
X03833Y-17575D01*
X03857Y-17604D01*
X03904Y-17632D01*
X04095Y-17632D01*
X03595Y-17918D02*
X03595Y-17318D01*
X03476Y-17318D01*
X03404Y-17346D01*
X03357Y-17404D01*
X03333Y-17461D01*
X03309Y-17575D01*
X03309Y-17661D01*
X03333Y-17775D01*
X03357Y-17832D01*
X03404Y-17889D01*
X03476Y-17918D01*
X03595Y-17918D01*
X03095Y-17918D02*
X03095Y-17518D01*
X03095Y-17318D02*
X03119Y-17346D01*
X03095Y-17375D01*
X03071Y-17346D01*
X03095Y-17318D01*
X03095Y-17375D01*
X02643Y-17889D02*
X02690Y-17918D01*
X02786Y-17918D01*
X02833Y-17889D01*
X02857Y-17861D01*
X02881Y-17804D01*
X02881Y-17632D01*
X02857Y-17575D01*
X02833Y-17546D01*
X02786Y-17518D01*
X02690Y-17518D01*
X02643Y-17546D01*
X02237Y-17889D02*
X02285Y-17918D01*
X02380Y-17918D01*
X02428Y-17889D01*
X02452Y-17832D01*
X02452Y-17604D01*
X02428Y-17546D01*
X02380Y-17518D01*
X02285Y-17518D01*
X02237Y-17546D01*
X02214Y-17604D01*
X02214Y-17661D01*
X02452Y-17718D01*
G54D14*
X14254Y-01343D02*
X14404Y-01057D01*
X14511Y-01343D02*
X14511Y-00743D01*
X14339Y-00743D01*
X14297Y-00771D01*
X14275Y-00800D01*
X14254Y-00857D01*
X14254Y-00943D01*
X14275Y-01000D01*
X14297Y-01029D01*
X14339Y-01057D01*
X14511Y-01057D01*
X13868Y-00943D02*
X13868Y-01343D01*
X13975Y-00714D02*
X14082Y-01143D01*
X13804Y-01143D01*
X13632Y-01343D02*
X13632Y-00943D01*
X13632Y-01057D02*
X13610Y-01000D01*
X13589Y-00971D01*
X13546Y-00943D01*
X13503Y-00943D01*
X13160Y-00943D02*
X13160Y-01343D01*
X13267Y-00714D02*
X13374Y-01143D01*
X13096Y-01143D01*
G54D13*
X19096Y-01349D02*
X19096Y-00549D01*
X18896Y-01120D01*
X18696Y-00549D01*
X18696Y-01349D01*
X18439Y-01311D02*
X18353Y-01349D01*
X18210Y-01349D01*
X18153Y-01311D01*
X18124Y-01273D01*
X18096Y-01196D01*
X18096Y-01120D01*
X18124Y-01044D01*
X18153Y-01006D01*
X18210Y-00968D01*
X18324Y-00930D01*
X18382Y-00892D01*
X18410Y-00854D01*
X18439Y-00777D01*
X18439Y-00701D01*
X18410Y-00625D01*
X18382Y-00587D01*
X18324Y-00549D01*
X18182Y-00549D01*
X18096Y-00587D01*
X17839Y-01349D02*
X17839Y-00549D01*
X17611Y-00549D01*
X17553Y-00587D01*
X17525Y-00625D01*
X17496Y-00701D01*
X17496Y-00815D01*
X17525Y-00892D01*
X17553Y-00930D01*
X17611Y-00968D01*
X17839Y-00968D01*
X16782Y-01349D02*
X16782Y-00549D01*
X16639Y-00549D01*
X16554Y-00587D01*
X16496Y-00663D01*
X16468Y-00739D01*
X16439Y-00892D01*
X16439Y-01006D01*
X16468Y-01158D01*
X16496Y-01235D01*
X16554Y-01311D01*
X16639Y-01349D01*
X16782Y-01349D01*
X16182Y-01349D02*
X16182Y-00815D01*
X16182Y-00549D02*
X16211Y-00587D01*
X16182Y-00625D01*
X16154Y-00587D01*
X16182Y-00549D01*
X16182Y-00625D01*
X15639Y-01311D02*
X15696Y-01349D01*
X15810Y-01349D01*
X15868Y-01311D01*
X15896Y-01273D01*
X15925Y-01196D01*
X15925Y-00968D01*
X15896Y-00892D01*
X15868Y-00854D01*
X15810Y-00815D01*
X15696Y-00815D01*
X15639Y-00854D01*
X15154Y-01311D02*
X15211Y-01349D01*
X15325Y-01349D01*
X15382Y-01311D01*
X15411Y-01235D01*
X15411Y-00930D01*
X15382Y-00854D01*
X15325Y-00815D01*
X15211Y-00815D01*
X15154Y-00854D01*
X15125Y-00930D01*
X15125Y-01006D01*
X15411Y-01082D01*
X13225Y-06975D02*
X13625Y-06975D01*
X13625Y-06975D02*
X13625Y-07375D01*
X13625Y-07375D02*
X16825Y-07375D01*
X16825Y-07375D02*
X16825Y-06575D01*
X16825Y-06575D02*
X13625Y-06575D01*
X13625Y-06575D02*
X13625Y-06975D01*
X13625Y-07175D02*
X13825Y-07375D01*
X17225Y-06975D02*
X16825Y-06975D01*
X12250Y-16725D02*
X11850Y-16725D01*
X11850Y-16725D02*
X11850Y-16325D01*
X11850Y-16325D02*
X08650Y-16325D01*
X08650Y-16325D02*
X08650Y-17125D01*
X08650Y-17125D02*
X11850Y-17125D01*
X11850Y-17125D02*
X11850Y-16725D01*
X11850Y-16525D02*
X11650Y-16325D01*
X08250Y-16725D02*
X08650Y-16725D01*
G54D12*
X13400Y-13750D02*
X13397Y-13779D01*
X13388Y-13807D01*
X13374Y-13833D01*
X13356Y-13855D01*
X13333Y-13874D01*
X13308Y-13888D01*
X13280Y-13896D01*
X13251Y-13899D01*
X13222Y-13897D01*
X13194Y-13889D01*
X13168Y-13875D01*
X13146Y-13857D01*
X13127Y-13834D01*
X13113Y-13809D01*
X13104Y-13781D01*
X13101Y-13752D01*
X13103Y-13723D01*
X13111Y-13695D01*
X13124Y-13669D01*
X13143Y-13646D01*
X13165Y-13627D01*
X13190Y-13613D01*
X13218Y-13604D01*
X13247Y-13601D01*
X13276Y-13603D01*
X13304Y-13611D01*
X13330Y-13624D01*
X13353Y-13642D01*
X13372Y-13664D01*
X13387Y-13689D01*
X13396Y-13717D01*
X13399Y-13746D01*
X13400Y-13750D01*
G54D15*
X12950Y-13450D02*
X14850Y-13450D01*
X14850Y-13450D02*
X14850Y-15250D01*
X14850Y-15250D02*
X12950Y-15250D01*
X12950Y-15250D02*
X12950Y-13450D01*
G54D12*
X17975Y-04500D02*
X17974Y-04509D01*
X17971Y-04519D01*
X17966Y-04527D01*
X17960Y-04535D01*
X17952Y-04541D01*
X17944Y-04546D01*
X17935Y-04548D01*
X17925Y-04549D01*
X17916Y-04549D01*
X17907Y-04546D01*
X17898Y-04541D01*
X17891Y-04535D01*
X17884Y-04528D01*
X17880Y-04519D01*
X17877Y-04510D01*
X17876Y-04500D01*
X17876Y-04491D01*
X17879Y-04482D01*
X17883Y-04473D01*
X17890Y-04466D01*
X17897Y-04459D01*
X17905Y-04455D01*
X17915Y-04452D01*
X17924Y-04451D01*
X17933Y-04451D01*
X17943Y-04454D01*
X17951Y-04458D01*
X17959Y-04464D01*
X17965Y-04472D01*
X17970Y-04480D01*
X17973Y-04489D01*
X17974Y-04499D01*
X17975Y-04500D01*
X17925Y-04050D02*
X17925Y-04450D01*
X17925Y-04450D02*
X18525Y-04450D01*
X18525Y-04450D02*
X18525Y-04050D01*
X18525Y-03650D02*
X18525Y-03250D01*
X18525Y-03250D02*
X17925Y-03250D01*
X17925Y-03250D02*
X17925Y-03650D01*
G54D13*
X05250Y-07950D02*
X06750Y-09450D01*
X06750Y-09450D02*
X06750Y-09950D01*
X06750Y-09950D02*
X06250Y-10450D01*
X06250Y-10450D02*
X05250Y-10450D01*
X05250Y-10450D02*
X04250Y-09450D01*
X04250Y-09450D02*
X04250Y-08450D01*
X04250Y-08450D02*
X04750Y-07950D01*
X04750Y-07950D02*
X05250Y-07950D01*
X07900Y-07950D02*
X09400Y-09450D01*
X09400Y-09450D02*
X09400Y-09950D01*
X09400Y-09950D02*
X08900Y-10450D01*
X08900Y-10450D02*
X07900Y-10450D01*
X07900Y-10450D02*
X06900Y-09450D01*
X06900Y-09450D02*
X06900Y-08450D01*
X06900Y-08450D02*
X07400Y-07950D01*
X07400Y-07950D02*
X07900Y-07950D01*
X10550Y-07900D02*
X12050Y-09400D01*
X12050Y-09400D02*
X12050Y-09900D01*
X12050Y-09900D02*
X11550Y-10400D01*
X11550Y-10400D02*
X10550Y-10400D01*
X10550Y-10400D02*
X09550Y-09400D01*
X09550Y-09400D02*
X09550Y-08400D01*
X09550Y-08400D02*
X10050Y-07900D01*
X10050Y-07900D02*
X10550Y-07900D01*
X13200Y-07900D02*
X14700Y-09400D01*
X14700Y-09400D02*
X14700Y-09900D01*
X14700Y-09900D02*
X14200Y-10400D01*
X14200Y-10400D02*
X13200Y-10400D01*
X13200Y-10400D02*
X12200Y-09400D01*
X12200Y-09400D02*
X12200Y-08400D01*
X12200Y-08400D02*
X12700Y-07900D01*
X12700Y-07900D02*
X13200Y-07900D01*
G54D16*
X10250Y-04500D02*
X10250Y-04500D01*
X10250Y-04500D02*
X10750Y-04500D01*
X10750Y-04500D02*
X10750Y-03500D01*
X10750Y-03500D02*
X10250Y-03500D01*
X10250Y-05000D02*
X19250Y-05000D01*
X19250Y-05000D02*
X19250Y-03000D01*
X19250Y-03000D02*
X10250Y-03000D01*
X10250Y-03000D02*
X10250Y-05000D01*
G54D13*
X00775Y-06750D02*
X01175Y-06750D01*
X01175Y-06750D02*
X01175Y-07150D01*
X01175Y-07150D02*
X04375Y-07150D01*
X04375Y-07150D02*
X04375Y-06350D01*
X04375Y-06350D02*
X01175Y-06350D01*
X01175Y-06350D02*
X01175Y-06750D01*
X01175Y-06950D02*
X01375Y-07150D01*
X04775Y-06750D02*
X04375Y-06750D01*
X00800Y-02800D02*
X01200Y-02800D01*
X01200Y-02800D02*
X01200Y-03200D01*
X01200Y-03200D02*
X04400Y-03200D01*
X04400Y-03200D02*
X04400Y-02400D01*
X04400Y-02400D02*
X01200Y-02400D01*
X01200Y-02400D02*
X01200Y-02800D01*
X01200Y-03000D02*
X01400Y-03200D01*
X04800Y-02800D02*
X04400Y-02800D01*
X00800Y-03800D02*
X01200Y-03800D01*
X01200Y-03800D02*
X01200Y-04200D01*
X01200Y-04200D02*
X04400Y-04200D01*
X04400Y-04200D02*
X04400Y-03400D01*
X04400Y-03400D02*
X01200Y-03400D01*
X01200Y-03400D02*
X01200Y-03800D01*
X01200Y-04000D02*
X01400Y-04200D01*
X04800Y-03800D02*
X04400Y-03800D01*
X00775Y-04775D02*
X01175Y-04775D01*
X01175Y-04775D02*
X01175Y-05175D01*
X01175Y-05175D02*
X04375Y-05175D01*
X04375Y-05175D02*
X04375Y-04375D01*
X04375Y-04375D02*
X01175Y-04375D01*
X01175Y-04375D02*
X01175Y-04775D01*
X01175Y-04975D02*
X01375Y-05175D01*
X04775Y-04775D02*
X04375Y-04775D01*
X00800Y-05750D02*
X01200Y-05750D01*
X01200Y-05750D02*
X01200Y-06150D01*
X01200Y-06150D02*
X04400Y-06150D01*
X04400Y-06150D02*
X04400Y-05350D01*
X04400Y-05350D02*
X01200Y-05350D01*
X01200Y-05350D02*
X01200Y-05750D01*
X01200Y-05950D02*
X01400Y-06150D01*
X04800Y-05750D02*
X04400Y-05750D01*
X00789Y-01775D02*
X01189Y-01775D01*
X01189Y-01775D02*
X01189Y-02175D01*
X01189Y-02175D02*
X04389Y-02175D01*
X04389Y-02175D02*
X04389Y-01375D01*
X04389Y-01375D02*
X01189Y-01375D01*
X01189Y-01375D02*
X01189Y-01775D01*
X01189Y-01975D02*
X01389Y-02175D01*
X04789Y-01775D02*
X04389Y-01775D01*
X00775Y-00775D02*
X01175Y-00775D01*
X01175Y-00775D02*
X01175Y-01175D01*
X01175Y-01175D02*
X04375Y-01175D01*
X04375Y-01175D02*
X04375Y-00375D01*
X04375Y-00375D02*
X01175Y-00375D01*
X01175Y-00375D02*
X01175Y-00775D01*
X01175Y-00975D02*
X01375Y-01175D01*
X04775Y-00775D02*
X04375Y-00775D01*
X00800Y-07750D02*
X01200Y-07750D01*
X01200Y-07750D02*
X01200Y-08150D01*
X01200Y-08150D02*
X04400Y-08150D01*
X04400Y-08150D02*
X04400Y-07350D01*
X04400Y-07350D02*
X01200Y-07350D01*
X01200Y-07350D02*
X01200Y-07750D01*
X01200Y-07950D02*
X01400Y-08150D01*
X04800Y-07750D02*
X04400Y-07750D01*
G54D15*
X16383Y-07248D02*
X16550Y-06986D01*
X16669Y-07248D02*
X16669Y-06698D01*
X16478Y-06698D01*
X16431Y-06724D01*
X16407Y-06750D01*
X16383Y-06802D01*
X16383Y-06881D01*
X16407Y-06933D01*
X16431Y-06960D01*
X16478Y-06986D01*
X16669Y-06986D01*
X15907Y-07248D02*
X16193Y-07248D01*
X16050Y-07248D02*
X16050Y-06698D01*
X16098Y-06776D01*
X16145Y-06829D01*
X16193Y-06855D01*
X09216Y-16977D02*
X09350Y-16739D01*
X09445Y-16977D02*
X09445Y-16477D01*
X09292Y-16477D01*
X09254Y-16501D01*
X09235Y-16525D01*
X09216Y-16573D01*
X09216Y-16644D01*
X09235Y-16692D01*
X09254Y-16715D01*
X09292Y-16739D01*
X09445Y-16739D01*
X09064Y-16525D02*
X09045Y-16501D01*
X09007Y-16477D01*
X08911Y-16477D01*
X08873Y-16501D01*
X08854Y-16525D01*
X08835Y-16573D01*
X08835Y-16620D01*
X08854Y-16692D01*
X09083Y-16977D01*
X08835Y-16977D01*
X14167Y-14442D02*
X14167Y-14725D01*
X14150Y-14758D01*
X14133Y-14775D01*
X14100Y-14792D01*
X14033Y-14792D01*
X14000Y-14775D01*
X13983Y-14758D01*
X13967Y-14725D01*
X13967Y-14442D01*
X13833Y-14442D02*
X13616Y-14442D01*
X13733Y-14575D01*
X13683Y-14575D01*
X13650Y-14592D01*
X13633Y-14608D01*
X13616Y-14642D01*
X13616Y-14725D01*
X13633Y-14758D01*
X13650Y-14775D01*
X13683Y-14792D01*
X13783Y-14792D01*
X13816Y-14775D01*
X13833Y-14758D01*
G54D12*
X17517Y-04327D02*
X17529Y-04339D01*
X17564Y-04351D01*
X17588Y-04351D01*
X17624Y-04339D01*
X17648Y-04315D01*
X17659Y-04292D01*
X17671Y-04244D01*
X17671Y-04208D01*
X17659Y-04161D01*
X17648Y-04137D01*
X17624Y-04113D01*
X17588Y-04101D01*
X17564Y-04101D01*
X17529Y-04113D01*
X17517Y-04125D01*
X17433Y-04101D02*
X17279Y-04101D01*
X17362Y-04196D01*
X17326Y-04196D01*
X17302Y-04208D01*
X17290Y-04220D01*
X17279Y-04244D01*
X17279Y-04304D01*
X17290Y-04327D01*
X17302Y-04339D01*
X17326Y-04351D01*
X17398Y-04351D01*
X17421Y-04339D01*
X17433Y-04327D01*
G54D15*
X05288Y-07650D02*
X05326Y-07631D01*
X05364Y-07593D01*
X05421Y-07536D01*
X05460Y-07517D01*
X05498Y-07517D01*
X05479Y-07612D02*
X05517Y-07593D01*
X05555Y-07555D01*
X05574Y-07479D01*
X05574Y-07345D01*
X05555Y-07269D01*
X05517Y-07231D01*
X05479Y-07212D01*
X05402Y-07212D01*
X05364Y-07231D01*
X05326Y-07269D01*
X05307Y-07345D01*
X05307Y-07479D01*
X05326Y-07555D01*
X05364Y-07593D01*
X05402Y-07612D01*
X05479Y-07612D01*
X04945Y-07212D02*
X05136Y-07212D01*
X05155Y-07402D01*
X05136Y-07383D01*
X05098Y-07364D01*
X05002Y-07364D01*
X04964Y-07383D01*
X04945Y-07402D01*
X04926Y-07440D01*
X04926Y-07536D01*
X04945Y-07574D01*
X04964Y-07593D01*
X05002Y-07612D01*
X05098Y-07612D01*
X05136Y-07593D01*
X05155Y-07574D01*
X06336Y-10750D02*
X06317Y-10731D01*
X06279Y-10712D01*
X06183Y-10712D01*
X06145Y-10731D01*
X06126Y-10750D01*
X06107Y-10788D01*
X06107Y-10826D01*
X06126Y-10883D01*
X06355Y-11112D01*
X06107Y-11112D01*
X05936Y-11112D02*
X05936Y-10712D01*
X05707Y-11112D01*
X05707Y-10712D01*
X05345Y-10845D02*
X05345Y-11112D01*
X05441Y-10693D02*
X05536Y-10979D01*
X05288Y-10979D01*
X04964Y-10845D02*
X04964Y-11112D01*
X05060Y-10693D02*
X05155Y-10979D01*
X04907Y-10979D01*
X04679Y-10712D02*
X04640Y-10712D01*
X04602Y-10731D01*
X04583Y-10750D01*
X04564Y-10788D01*
X04545Y-10864D01*
X04545Y-10960D01*
X04564Y-11036D01*
X04583Y-11074D01*
X04602Y-11093D01*
X04640Y-11112D01*
X04679Y-11112D01*
X04717Y-11093D01*
X04736Y-11074D01*
X04755Y-11036D01*
X04774Y-10960D01*
X04774Y-10864D01*
X04755Y-10788D01*
X04736Y-10750D01*
X04717Y-10731D01*
X04679Y-10712D01*
X04412Y-10712D02*
X04164Y-10712D01*
X04298Y-10864D01*
X04240Y-10864D01*
X04202Y-10883D01*
X04183Y-10902D01*
X04164Y-10940D01*
X04164Y-11036D01*
X04183Y-11074D01*
X04202Y-11093D01*
X04240Y-11112D01*
X04355Y-11112D01*
X04393Y-11093D01*
X04412Y-11074D01*
X07938Y-07650D02*
X07976Y-07631D01*
X08014Y-07593D01*
X08071Y-07536D01*
X08110Y-07517D01*
X08148Y-07517D01*
X08129Y-07612D02*
X08167Y-07593D01*
X08205Y-07555D01*
X08224Y-07479D01*
X08224Y-07345D01*
X08205Y-07269D01*
X08167Y-07231D01*
X08129Y-07212D01*
X08052Y-07212D01*
X08014Y-07231D01*
X07976Y-07269D01*
X07957Y-07345D01*
X07957Y-07479D01*
X07976Y-07555D01*
X08014Y-07593D01*
X08052Y-07612D01*
X08129Y-07612D01*
X07614Y-07212D02*
X07691Y-07212D01*
X07729Y-07231D01*
X07748Y-07250D01*
X07786Y-07307D01*
X07805Y-07383D01*
X07805Y-07536D01*
X07786Y-07574D01*
X07767Y-07593D01*
X07729Y-07612D01*
X07652Y-07612D01*
X07614Y-07593D01*
X07595Y-07574D01*
X07576Y-07536D01*
X07576Y-07440D01*
X07595Y-07402D01*
X07614Y-07383D01*
X07652Y-07364D01*
X07729Y-07364D01*
X07767Y-07383D01*
X07786Y-07402D01*
X07805Y-07440D01*
X08986Y-10750D02*
X08967Y-10731D01*
X08929Y-10712D01*
X08833Y-10712D01*
X08795Y-10731D01*
X08776Y-10750D01*
X08757Y-10788D01*
X08757Y-10826D01*
X08776Y-10883D01*
X09005Y-11112D01*
X08757Y-11112D01*
X08586Y-11112D02*
X08586Y-10712D01*
X08357Y-11112D01*
X08357Y-10712D01*
X07995Y-10845D02*
X07995Y-11112D01*
X08091Y-10693D02*
X08186Y-10979D01*
X07938Y-10979D01*
X07614Y-10845D02*
X07614Y-11112D01*
X07710Y-10693D02*
X07805Y-10979D01*
X07557Y-10979D01*
X07329Y-10712D02*
X07290Y-10712D01*
X07252Y-10731D01*
X07233Y-10750D01*
X07214Y-10788D01*
X07195Y-10864D01*
X07195Y-10960D01*
X07214Y-11036D01*
X07233Y-11074D01*
X07252Y-11093D01*
X07290Y-11112D01*
X07329Y-11112D01*
X07367Y-11093D01*
X07386Y-11074D01*
X07405Y-11036D01*
X07424Y-10960D01*
X07424Y-10864D01*
X07405Y-10788D01*
X07386Y-10750D01*
X07367Y-10731D01*
X07329Y-10712D01*
X07062Y-10712D02*
X06814Y-10712D01*
X06948Y-10864D01*
X06890Y-10864D01*
X06852Y-10883D01*
X06833Y-10902D01*
X06814Y-10940D01*
X06814Y-11036D01*
X06833Y-11074D01*
X06852Y-11093D01*
X06890Y-11112D01*
X07005Y-11112D01*
X07043Y-11093D01*
X07062Y-11074D01*
X10588Y-07600D02*
X10626Y-07581D01*
X10664Y-07543D01*
X10721Y-07486D01*
X10760Y-07467D01*
X10798Y-07467D01*
X10779Y-07562D02*
X10817Y-07543D01*
X10855Y-07505D01*
X10874Y-07429D01*
X10874Y-07295D01*
X10855Y-07219D01*
X10817Y-07181D01*
X10779Y-07162D01*
X10702Y-07162D01*
X10664Y-07181D01*
X10626Y-07219D01*
X10607Y-07295D01*
X10607Y-07429D01*
X10626Y-07505D01*
X10664Y-07543D01*
X10702Y-07562D01*
X10779Y-07562D01*
X10474Y-07162D02*
X10207Y-07162D01*
X10379Y-07562D01*
X11636Y-10700D02*
X11617Y-10681D01*
X11579Y-10662D01*
X11483Y-10662D01*
X11445Y-10681D01*
X11426Y-10700D01*
X11407Y-10738D01*
X11407Y-10776D01*
X11426Y-10833D01*
X11655Y-11062D01*
X11407Y-11062D01*
X11236Y-11062D02*
X11236Y-10662D01*
X11007Y-11062D01*
X11007Y-10662D01*
X10645Y-10795D02*
X10645Y-11062D01*
X10741Y-10643D02*
X10836Y-10929D01*
X10588Y-10929D01*
X10264Y-10795D02*
X10264Y-11062D01*
X10360Y-10643D02*
X10455Y-10929D01*
X10207Y-10929D01*
X09979Y-10662D02*
X09940Y-10662D01*
X09902Y-10681D01*
X09883Y-10700D01*
X09864Y-10738D01*
X09845Y-10814D01*
X09845Y-10910D01*
X09864Y-10986D01*
X09883Y-11024D01*
X09902Y-11043D01*
X09940Y-11062D01*
X09979Y-11062D01*
X10017Y-11043D01*
X10036Y-11024D01*
X10055Y-10986D01*
X10074Y-10910D01*
X10074Y-10814D01*
X10055Y-10738D01*
X10036Y-10700D01*
X10017Y-10681D01*
X09979Y-10662D01*
X09712Y-10662D02*
X09464Y-10662D01*
X09598Y-10814D01*
X09540Y-10814D01*
X09502Y-10833D01*
X09483Y-10852D01*
X09464Y-10890D01*
X09464Y-10986D01*
X09483Y-11024D01*
X09502Y-11043D01*
X09540Y-11062D01*
X09655Y-11062D01*
X09693Y-11043D01*
X09712Y-11024D01*
X13238Y-07600D02*
X13276Y-07581D01*
X13314Y-07543D01*
X13371Y-07486D01*
X13410Y-07467D01*
X13448Y-07467D01*
X13429Y-07562D02*
X13467Y-07543D01*
X13505Y-07505D01*
X13524Y-07429D01*
X13524Y-07295D01*
X13505Y-07219D01*
X13467Y-07181D01*
X13429Y-07162D01*
X13352Y-07162D01*
X13314Y-07181D01*
X13276Y-07219D01*
X13257Y-07295D01*
X13257Y-07429D01*
X13276Y-07505D01*
X13314Y-07543D01*
X13352Y-07562D01*
X13429Y-07562D01*
X13029Y-07333D02*
X13067Y-07314D01*
X13086Y-07295D01*
X13105Y-07257D01*
X13105Y-07238D01*
X13086Y-07200D01*
X13067Y-07181D01*
X13029Y-07162D01*
X12952Y-07162D01*
X12914Y-07181D01*
X12895Y-07200D01*
X12876Y-07238D01*
X12876Y-07257D01*
X12895Y-07295D01*
X12914Y-07314D01*
X12952Y-07333D01*
X13029Y-07333D01*
X13067Y-07352D01*
X13086Y-07371D01*
X13105Y-07410D01*
X13105Y-07486D01*
X13086Y-07524D01*
X13067Y-07543D01*
X13029Y-07562D01*
X12952Y-07562D01*
X12914Y-07543D01*
X12895Y-07524D01*
X12876Y-07486D01*
X12876Y-07410D01*
X12895Y-07371D01*
X12914Y-07352D01*
X12952Y-07333D01*
X14286Y-10700D02*
X14267Y-10681D01*
X14229Y-10662D01*
X14133Y-10662D01*
X14095Y-10681D01*
X14076Y-10700D01*
X14057Y-10738D01*
X14057Y-10776D01*
X14076Y-10833D01*
X14305Y-11062D01*
X14057Y-11062D01*
X13886Y-11062D02*
X13886Y-10662D01*
X13657Y-11062D01*
X13657Y-10662D01*
X13295Y-10795D02*
X13295Y-11062D01*
X13391Y-10643D02*
X13486Y-10929D01*
X13238Y-10929D01*
X12914Y-10795D02*
X12914Y-11062D01*
X13010Y-10643D02*
X13105Y-10929D01*
X12857Y-10929D01*
X12629Y-10662D02*
X12590Y-10662D01*
X12552Y-10681D01*
X12533Y-10700D01*
X12514Y-10738D01*
X12495Y-10814D01*
X12495Y-10910D01*
X12514Y-10986D01*
X12533Y-11024D01*
X12552Y-11043D01*
X12590Y-11062D01*
X12629Y-11062D01*
X12667Y-11043D01*
X12686Y-11024D01*
X12705Y-10986D01*
X12724Y-10910D01*
X12724Y-10814D01*
X12705Y-10738D01*
X12686Y-10700D01*
X12667Y-10681D01*
X12629Y-10662D01*
X12362Y-10662D02*
X12114Y-10662D01*
X12248Y-10814D01*
X12190Y-10814D01*
X12152Y-10833D01*
X12133Y-10852D01*
X12114Y-10890D01*
X12114Y-10986D01*
X12133Y-11024D01*
X12152Y-11043D01*
X12190Y-11062D01*
X12305Y-11062D01*
X12343Y-11043D01*
X12362Y-11024D01*
G54D17*
X10693Y-02143D02*
X10693Y-02629D01*
X10671Y-02686D01*
X10650Y-02714D01*
X10607Y-02743D01*
X10521Y-02743D01*
X10479Y-02714D01*
X10457Y-02686D01*
X10436Y-02629D01*
X10436Y-02143D01*
X10029Y-02343D02*
X10029Y-02743D01*
X10136Y-02114D02*
X10243Y-02543D01*
X09965Y-02543D01*
X16694Y-03343D02*
X16394Y-03343D01*
X16587Y-03943D01*
X16029Y-03543D02*
X16029Y-03943D01*
X16136Y-03314D02*
X16243Y-03743D01*
X15965Y-03743D01*
X15793Y-03943D02*
X15793Y-03343D01*
X15793Y-03629D02*
X15536Y-03629D01*
X15536Y-03943D02*
X15536Y-03343D01*
X15065Y-03886D02*
X15086Y-03914D01*
X15150Y-03943D01*
X15193Y-03943D01*
X15258Y-03914D01*
X15300Y-03857D01*
X15322Y-03800D01*
X15343Y-03686D01*
X15343Y-03600D01*
X15322Y-03486D01*
X15300Y-03429D01*
X15258Y-03371D01*
X15193Y-03343D01*
X15150Y-03343D01*
X15086Y-03371D01*
X15065Y-03400D01*
X14658Y-03343D02*
X14872Y-03343D01*
X14893Y-03629D01*
X14872Y-03600D01*
X14829Y-03571D01*
X14722Y-03571D01*
X14679Y-03600D01*
X14658Y-03629D01*
X14636Y-03686D01*
X14636Y-03829D01*
X14658Y-03886D01*
X14679Y-03914D01*
X14722Y-03943D01*
X14829Y-03943D01*
X14872Y-03914D01*
X14893Y-03886D01*
X14421Y-03943D02*
X14336Y-03943D01*
X14293Y-03914D01*
X14271Y-03886D01*
X14229Y-03800D01*
X14207Y-03686D01*
X14207Y-03457D01*
X14229Y-03400D01*
X14250Y-03371D01*
X14293Y-03343D01*
X14379Y-03343D01*
X14421Y-03371D01*
X14443Y-03400D01*
X14464Y-03457D01*
X14464Y-03600D01*
X14443Y-03657D01*
X14421Y-03686D01*
X14379Y-03714D01*
X14293Y-03714D01*
X14250Y-03686D01*
X14229Y-03657D01*
X14207Y-03600D01*
X13800Y-03343D02*
X14014Y-03343D01*
X14035Y-03629D01*
X14014Y-03600D01*
X13971Y-03571D01*
X13864Y-03571D01*
X13821Y-03600D01*
X13800Y-03629D01*
X13778Y-03686D01*
X13778Y-03829D01*
X13800Y-03886D01*
X13821Y-03914D01*
X13864Y-03943D01*
X13971Y-03943D01*
X14014Y-03914D01*
X14035Y-03886D01*
G54D15*
X03933Y-07023D02*
X04100Y-06761D01*
X04219Y-07023D02*
X04219Y-06473D01*
X04028Y-06473D01*
X03981Y-06499D01*
X03957Y-06525D01*
X03933Y-06577D01*
X03933Y-06656D01*
X03957Y-06708D01*
X03981Y-06735D01*
X04028Y-06761D01*
X04219Y-06761D01*
X03767Y-06473D02*
X03457Y-06473D01*
X03624Y-06682D01*
X03552Y-06682D01*
X03505Y-06708D01*
X03481Y-06735D01*
X03457Y-06787D01*
X03457Y-06918D01*
X03481Y-06970D01*
X03505Y-06996D01*
X03552Y-07023D01*
X03695Y-07023D01*
X03743Y-06996D01*
X03767Y-06970D01*
X03958Y-03073D02*
X04125Y-02811D01*
X04244Y-03073D02*
X04244Y-02523D01*
X04053Y-02523D01*
X04006Y-02549D01*
X03982Y-02575D01*
X03958Y-02627D01*
X03958Y-02706D01*
X03982Y-02758D01*
X04006Y-02785D01*
X04053Y-02811D01*
X04244Y-02811D01*
X03530Y-02706D02*
X03530Y-03073D01*
X03649Y-02496D02*
X03768Y-02889D01*
X03458Y-02889D01*
X03958Y-04073D02*
X04125Y-03811D01*
X04244Y-04073D02*
X04244Y-03523D01*
X04053Y-03523D01*
X04006Y-03549D01*
X03982Y-03575D01*
X03958Y-03627D01*
X03958Y-03706D01*
X03982Y-03758D01*
X04006Y-03785D01*
X04053Y-03811D01*
X04244Y-03811D01*
X03506Y-03523D02*
X03744Y-03523D01*
X03768Y-03785D01*
X03744Y-03758D01*
X03696Y-03732D01*
X03577Y-03732D01*
X03530Y-03758D01*
X03506Y-03785D01*
X03482Y-03837D01*
X03482Y-03968D01*
X03506Y-04020D01*
X03530Y-04046D01*
X03577Y-04073D01*
X03696Y-04073D01*
X03744Y-04046D01*
X03768Y-04020D01*
X03933Y-05048D02*
X04100Y-04786D01*
X04219Y-05048D02*
X04219Y-04498D01*
X04028Y-04498D01*
X03981Y-04524D01*
X03957Y-04550D01*
X03933Y-04602D01*
X03933Y-04681D01*
X03957Y-04733D01*
X03981Y-04760D01*
X04028Y-04786D01*
X04219Y-04786D01*
X03505Y-04498D02*
X03600Y-04498D01*
X03648Y-04524D01*
X03671Y-04550D01*
X03719Y-04629D01*
X03743Y-04733D01*
X03743Y-04943D01*
X03719Y-04995D01*
X03695Y-05021D01*
X03648Y-05048D01*
X03552Y-05048D01*
X03505Y-05021D01*
X03481Y-04995D01*
X03457Y-04943D01*
X03457Y-04812D01*
X03481Y-04760D01*
X03505Y-04733D01*
X03552Y-04707D01*
X03648Y-04707D01*
X03695Y-04733D01*
X03719Y-04760D01*
X03743Y-04812D01*
X03958Y-06023D02*
X04125Y-05761D01*
X04244Y-06023D02*
X04244Y-05473D01*
X04053Y-05473D01*
X04006Y-05499D01*
X03982Y-05525D01*
X03958Y-05577D01*
X03958Y-05656D01*
X03982Y-05708D01*
X04006Y-05735D01*
X04053Y-05761D01*
X04244Y-05761D01*
X03792Y-05473D02*
X03458Y-05473D01*
X03673Y-06023D01*
X03958Y-02048D02*
X04125Y-01786D01*
X04244Y-02048D02*
X04244Y-01498D01*
X04053Y-01498D01*
X04006Y-01524D01*
X03982Y-01550D01*
X03958Y-01602D01*
X03958Y-01681D01*
X03982Y-01733D01*
X04006Y-01760D01*
X04053Y-01786D01*
X04244Y-01786D01*
X03673Y-01733D02*
X03720Y-01707D01*
X03744Y-01681D01*
X03768Y-01629D01*
X03768Y-01602D01*
X03744Y-01550D01*
X03720Y-01524D01*
X03673Y-01498D01*
X03577Y-01498D01*
X03530Y-01524D01*
X03506Y-01550D01*
X03482Y-01602D01*
X03482Y-01629D01*
X03506Y-01681D01*
X03530Y-01707D01*
X03577Y-01733D01*
X03673Y-01733D01*
X03720Y-01760D01*
X03744Y-01786D01*
X03768Y-01838D01*
X03768Y-01943D01*
X03744Y-01995D01*
X03720Y-02021D01*
X03673Y-02048D01*
X03577Y-02048D01*
X03530Y-02021D01*
X03506Y-01995D01*
X03482Y-01943D01*
X03482Y-01838D01*
X03506Y-01786D01*
X03530Y-01760D01*
X03577Y-01733D01*
X03958Y-01048D02*
X04125Y-00786D01*
X04244Y-01048D02*
X04244Y-00498D01*
X04053Y-00498D01*
X04006Y-00524D01*
X03982Y-00550D01*
X03958Y-00602D01*
X03958Y-00681D01*
X03982Y-00733D01*
X04006Y-00760D01*
X04053Y-00786D01*
X04244Y-00786D01*
X03720Y-01048D02*
X03625Y-01048D01*
X03577Y-01021D01*
X03553Y-00995D01*
X03506Y-00917D01*
X03482Y-00812D01*
X03482Y-00602D01*
X03506Y-00550D01*
X03530Y-00524D01*
X03577Y-00498D01*
X03673Y-00498D01*
X03720Y-00524D01*
X03744Y-00550D01*
X03768Y-00602D01*
X03768Y-00733D01*
X03744Y-00786D01*
X03720Y-00812D01*
X03673Y-00838D01*
X03577Y-00838D01*
X03530Y-00812D01*
X03506Y-00786D01*
X03482Y-00733D01*
X03121Y-08923D02*
X03288Y-08661D01*
X03407Y-08923D02*
X03407Y-08373D01*
X03216Y-08373D01*
X03169Y-08399D01*
X03145Y-08425D01*
X03121Y-08477D01*
X03121Y-08556D01*
X03145Y-08608D01*
X03169Y-08635D01*
X03216Y-08661D01*
X03407Y-08661D01*
X02645Y-08923D02*
X02931Y-08923D01*
X02788Y-08923D02*
X02788Y-08373D01*
X02836Y-08451D01*
X02883Y-08504D01*
X02931Y-08530D01*
X02336Y-08373D02*
X02288Y-08373D01*
X02240Y-08399D01*
X02217Y-08425D01*
X02193Y-08477D01*
X02169Y-08582D01*
X02169Y-08713D01*
X02193Y-08818D01*
X02217Y-08870D01*
X02240Y-08896D01*
X02288Y-08923D01*
X02336Y-08923D01*
X02383Y-08896D01*
X02407Y-08870D01*
X02431Y-08818D01*
X02455Y-08713D01*
X02455Y-08582D01*
X02431Y-08477D01*
X02407Y-08425D01*
X02383Y-08399D01*
X02336Y-08373D01*
M02*
