G04 (created by PCBNEW-RS274X (2011-05-25)-stable) date Sun 14 Oct 2012 04:31:26 PM CDT*
G01*
G70*
G90*
%MOIN*%
G04 Gerber Fmt 3.4, Leading zero omitted, Abs format*
%FSLAX34Y34*%
G04 APERTURE LIST*
%ADD10C,0.006000*%
%ADD11R,0.055000X0.055000*%
%ADD12C,0.055000*%
%ADD13R,0.062000X0.090000*%
%ADD14O,0.062000X0.090000*%
%ADD15C,0.060000*%
%ADD16R,0.040000X0.060000*%
%ADD17R,0.017000X0.055000*%
%ADD18R,0.055000X0.035000*%
%ADD19C,0.035000*%
%ADD20C,0.045000*%
%ADD21C,0.010000*%
%ADD22C,0.015000*%
%ADD23C,0.018000*%
%ADD24C,0.030000*%
G04 APERTURE END LIST*
G54D10*
G54D11*
X16200Y-08500D03*
G54D12*
X17200Y-08500D03*
G54D13*
X12250Y-12850D03*
G54D14*
X11250Y-12850D03*
X10250Y-12850D03*
X09250Y-12850D03*
X08250Y-12850D03*
X07250Y-12850D03*
X06250Y-12850D03*
X06250Y-15850D03*
X07250Y-15850D03*
X08250Y-15850D03*
X09250Y-15850D03*
X10250Y-15850D03*
X11250Y-15850D03*
X12250Y-15850D03*
G54D15*
X07343Y-07062D03*
X08343Y-07062D03*
X09343Y-07062D03*
X10343Y-07062D03*
X11343Y-07062D03*
X12343Y-07062D03*
X07343Y-00812D03*
X08343Y-00812D03*
X09343Y-00812D03*
X10343Y-00812D03*
X11343Y-00812D03*
X12343Y-00812D03*
X13225Y-06975D03*
X17225Y-06975D03*
G54D16*
X14825Y-06975D03*
X15625Y-06975D03*
G54D15*
X12250Y-16725D03*
X08250Y-16725D03*
G54D16*
X10650Y-16725D03*
X09850Y-16725D03*
G54D17*
X13140Y-13250D03*
X13390Y-13250D03*
X13650Y-13250D03*
X13900Y-13250D03*
X14160Y-13250D03*
X14415Y-13250D03*
X14670Y-13250D03*
X14670Y-15450D03*
X14415Y-15450D03*
X14160Y-15450D03*
X13900Y-15450D03*
X13645Y-15450D03*
X13390Y-15450D03*
X13135Y-15450D03*
G54D11*
X00825Y-09000D03*
G54D12*
X00825Y-10000D03*
X00825Y-11000D03*
X00825Y-12000D03*
X00825Y-13000D03*
X00825Y-14000D03*
X00825Y-15000D03*
G54D11*
X18775Y-09000D03*
G54D12*
X18775Y-10000D03*
X18775Y-11000D03*
X18775Y-12000D03*
X18775Y-13000D03*
X18775Y-14000D03*
X18775Y-15000D03*
G54D18*
X18225Y-04225D03*
X18225Y-03475D03*
G54D11*
X07343Y-18504D03*
G54D12*
X08343Y-18504D03*
X09343Y-18504D03*
X10343Y-18504D03*
X11343Y-18504D03*
X12343Y-18504D03*
G54D15*
X06450Y-10700D03*
X02450Y-10700D03*
X06450Y-11750D03*
X02450Y-11750D03*
X10550Y-11075D03*
X14550Y-11075D03*
X16750Y-09550D03*
X16750Y-13550D03*
G54D11*
X06250Y-09450D03*
G54D12*
X05250Y-09450D03*
X05250Y-08450D03*
G54D11*
X08900Y-09450D03*
G54D12*
X07900Y-09450D03*
X07900Y-08450D03*
G54D11*
X11550Y-09400D03*
G54D12*
X10550Y-09400D03*
X10550Y-08400D03*
G54D11*
X14200Y-09400D03*
G54D12*
X13200Y-09400D03*
X13200Y-08400D03*
G54D13*
X11250Y-02500D03*
G54D14*
X12250Y-02500D03*
X13250Y-02500D03*
X14250Y-02500D03*
X15250Y-02500D03*
X16250Y-02500D03*
X17250Y-02500D03*
X18250Y-02500D03*
X18250Y-05500D03*
X17250Y-05500D03*
X16250Y-05500D03*
X15250Y-05500D03*
X14250Y-05500D03*
X13250Y-05500D03*
X12250Y-05500D03*
X11250Y-05500D03*
G54D15*
X00775Y-06750D03*
X04775Y-06750D03*
G54D16*
X02375Y-06750D03*
X03175Y-06750D03*
G54D15*
X00800Y-02800D03*
X04800Y-02800D03*
G54D16*
X02400Y-02800D03*
X03200Y-02800D03*
G54D15*
X00800Y-03800D03*
X04800Y-03800D03*
G54D16*
X02400Y-03800D03*
X03200Y-03800D03*
G54D15*
X00775Y-04775D03*
X04775Y-04775D03*
G54D16*
X02375Y-04775D03*
X03175Y-04775D03*
G54D15*
X00800Y-05750D03*
X04800Y-05750D03*
G54D16*
X02400Y-05750D03*
X03200Y-05750D03*
G54D15*
X00789Y-01775D03*
X04789Y-01775D03*
G54D16*
X02389Y-01775D03*
X03189Y-01775D03*
G54D15*
X00775Y-00775D03*
X04775Y-00775D03*
G54D16*
X02375Y-00775D03*
X03175Y-00775D03*
G54D15*
X00800Y-07750D03*
X04800Y-07750D03*
G54D16*
X02400Y-07750D03*
X03200Y-07750D03*
G54D19*
X06450Y-06675D03*
G54D20*
X05575Y-05300D03*
X18675Y-07675D03*
G54D19*
X14800Y-08100D03*
X06550Y-07200D03*
X14400Y-11850D03*
G54D20*
X15875Y-11150D03*
X15325Y-16100D03*
X13300Y-16125D03*
X17750Y-06175D03*
X18525Y-07125D03*
G54D19*
X07100Y-04600D03*
X05425Y-07325D03*
X02275Y-09475D03*
G54D21*
X08400Y-13600D02*
X08375Y-13600D01*
X06575Y-06675D02*
X06875Y-06375D01*
X12250Y-05500D02*
X11375Y-06375D01*
X06875Y-06375D02*
X11375Y-06375D01*
X06450Y-06675D02*
X06575Y-06675D01*
G54D22*
X03175Y-06750D02*
X04775Y-06750D01*
G54D23*
X05575Y-05300D02*
X05575Y-06325D01*
X05575Y-06325D02*
X05575Y-06775D01*
X05250Y-08300D02*
X05250Y-08450D01*
X06000Y-07550D02*
X05250Y-08300D01*
X06000Y-07200D02*
X06000Y-07550D01*
X05575Y-06775D02*
X06000Y-07200D01*
X05575Y-06325D02*
X05575Y-06350D01*
X15450Y-07975D02*
X15575Y-07975D01*
X15000Y-10175D02*
X15450Y-09725D01*
X15450Y-09725D02*
X15450Y-07975D01*
X14350Y-10175D02*
X12900Y-10175D01*
X12900Y-10175D02*
X12200Y-09475D01*
X12200Y-09475D02*
X12200Y-08725D01*
X12200Y-08725D02*
X11875Y-08400D01*
X10550Y-08400D02*
X11875Y-08400D01*
X14350Y-10175D02*
X15000Y-10175D01*
X18475Y-07675D02*
X18675Y-07675D01*
X18125Y-08025D02*
X18475Y-07675D01*
X15625Y-08025D02*
X18125Y-08025D01*
X15575Y-07975D02*
X15625Y-08025D01*
X18675Y-07675D02*
X18675Y-07625D01*
G54D24*
X13200Y-08400D02*
X13200Y-07919D01*
X13200Y-07919D02*
X12343Y-07062D01*
G54D22*
X03200Y-02800D02*
X04800Y-02800D01*
G54D21*
X04800Y-02800D02*
X04950Y-02800D01*
X05250Y-02500D02*
X11250Y-02500D01*
X04950Y-02800D02*
X05250Y-02500D01*
G54D22*
X03200Y-03800D02*
X04800Y-03800D01*
G54D21*
X04800Y-03800D02*
X05200Y-03800D01*
X11400Y-03350D02*
X12250Y-02500D01*
X05650Y-03350D02*
X11400Y-03350D01*
X05200Y-03800D02*
X05650Y-03350D01*
G54D22*
X17225Y-06975D02*
X15625Y-06975D01*
X17225Y-06975D02*
X17225Y-05525D01*
X17225Y-05525D02*
X17250Y-05500D01*
X03175Y-04775D02*
X04775Y-04775D01*
G54D21*
X04775Y-04775D02*
X04825Y-04775D01*
X12050Y-03700D02*
X13250Y-02500D01*
X05900Y-03700D02*
X12050Y-03700D01*
X04825Y-04775D02*
X05900Y-03700D01*
X15208Y-06533D02*
X15208Y-07342D01*
X13250Y-05800D02*
X13750Y-06300D01*
X13750Y-06300D02*
X14975Y-06300D01*
X14975Y-06300D02*
X15208Y-06533D01*
X13250Y-05500D02*
X13250Y-05800D01*
X14550Y-07800D02*
X14800Y-08100D01*
X14550Y-07625D02*
X14550Y-07800D01*
X14675Y-07500D02*
X14550Y-07625D01*
X15050Y-07500D02*
X14675Y-07500D01*
X15208Y-07342D02*
X15050Y-07500D01*
X14670Y-15450D02*
X18325Y-15450D01*
X18325Y-15450D02*
X18775Y-15000D01*
X14670Y-15450D02*
X14670Y-16680D01*
X06250Y-17000D02*
X06250Y-15850D01*
X07050Y-17800D02*
X06250Y-17000D01*
X13550Y-17800D02*
X07050Y-17800D01*
X14670Y-16680D02*
X13550Y-17800D01*
X02450Y-10700D02*
X01125Y-10700D01*
X01125Y-10700D02*
X00825Y-11000D01*
X10250Y-12850D02*
X10250Y-12975D01*
X13650Y-13700D02*
X13650Y-13250D01*
X13375Y-13975D02*
X13650Y-13700D01*
X11250Y-13975D02*
X13375Y-13975D01*
X10250Y-12975D02*
X11250Y-13975D01*
X02450Y-11750D02*
X01075Y-11750D01*
X01075Y-11750D02*
X00825Y-12000D01*
X09250Y-12850D02*
X09150Y-12850D01*
X13900Y-13250D02*
X13900Y-13800D01*
X10600Y-14200D02*
X10000Y-13600D01*
X13500Y-14200D02*
X10600Y-14200D01*
X13900Y-13800D02*
X13500Y-14200D01*
X10000Y-13600D02*
X09250Y-12850D01*
X00825Y-13000D02*
X00825Y-13200D01*
X00825Y-13200D02*
X00350Y-13675D01*
X00350Y-13675D02*
X00350Y-14175D01*
X00350Y-14175D02*
X00725Y-14550D01*
X00725Y-14550D02*
X01275Y-14550D01*
X01275Y-14550D02*
X01775Y-14050D01*
X01775Y-14050D02*
X07050Y-14050D01*
X07050Y-14050D02*
X08250Y-12850D01*
X14160Y-13250D02*
X14160Y-12885D01*
X14160Y-12885D02*
X13975Y-12700D01*
X13975Y-12700D02*
X13275Y-12700D01*
X13275Y-12700D02*
X12700Y-12125D01*
X12700Y-12125D02*
X08975Y-12125D01*
X08975Y-12125D02*
X08250Y-12850D01*
X07250Y-12850D02*
X07250Y-12925D01*
X01025Y-13800D02*
X00825Y-14000D01*
X06375Y-13800D02*
X01025Y-13800D01*
X07250Y-12925D02*
X06375Y-13800D01*
X14415Y-13250D02*
X14415Y-13690D01*
X16350Y-13950D02*
X16750Y-13550D01*
X14675Y-13950D02*
X16350Y-13950D01*
X14415Y-13690D02*
X14675Y-13950D01*
X07250Y-12850D02*
X07250Y-12775D01*
X14415Y-12740D02*
X14415Y-13250D01*
X14125Y-12450D02*
X14415Y-12740D01*
X13400Y-12450D02*
X14125Y-12450D01*
X12800Y-11850D02*
X13400Y-12450D01*
X08175Y-11850D02*
X12800Y-11850D01*
X07250Y-12775D02*
X08175Y-11850D01*
X02400Y-07750D02*
X02400Y-07925D01*
X08707Y-07698D02*
X09343Y-07062D01*
X07427Y-07698D02*
X08707Y-07698D01*
X06125Y-09000D02*
X07427Y-07698D01*
X03475Y-09000D02*
X06125Y-09000D01*
X02400Y-07925D02*
X03475Y-09000D01*
G54D22*
X00800Y-07750D02*
X02400Y-07750D01*
G54D21*
X13150Y-03575D02*
X12836Y-03575D01*
X06550Y-07200D02*
X06367Y-07017D01*
X06367Y-07017D02*
X06192Y-07017D01*
X06192Y-07017D02*
X06075Y-06900D01*
X06075Y-06900D02*
X06075Y-06350D01*
X17250Y-02500D02*
X16175Y-03575D01*
X13150Y-03575D02*
X16175Y-03575D01*
X06075Y-04850D02*
X06075Y-06350D01*
X06675Y-04250D02*
X06075Y-04850D01*
X12161Y-04250D02*
X06675Y-04250D01*
X12836Y-03575D02*
X12161Y-04250D01*
G54D22*
X04800Y-07750D02*
X03200Y-07750D01*
G54D21*
X06225Y-04000D02*
X06075Y-04150D01*
X12125Y-04000D02*
X06225Y-04000D01*
X12950Y-03175D02*
X12125Y-04000D01*
X04800Y-05425D02*
X06075Y-04150D01*
X04800Y-05750D02*
X04800Y-05425D01*
X14250Y-03075D02*
X14150Y-03175D01*
X14150Y-03175D02*
X12950Y-03175D01*
X14250Y-03075D02*
X14250Y-02500D01*
G54D22*
X03200Y-05750D02*
X04800Y-05750D01*
G54D21*
X19131Y-06306D02*
X19131Y-06631D01*
X14250Y-05350D02*
X15000Y-04600D01*
X15000Y-04600D02*
X18725Y-04600D01*
X18725Y-04600D02*
X19131Y-05006D01*
X19131Y-05006D02*
X19131Y-06306D01*
X14250Y-05500D02*
X14250Y-05350D01*
X19425Y-13350D02*
X18775Y-14000D01*
X19425Y-06925D02*
X19425Y-13350D01*
X19131Y-06631D02*
X19425Y-06925D01*
X14415Y-15450D02*
X14415Y-15085D01*
X14415Y-15085D02*
X14500Y-15000D01*
X14500Y-15000D02*
X17775Y-15000D01*
X17775Y-15000D02*
X18775Y-14000D01*
X14415Y-15450D02*
X14415Y-16560D01*
X07250Y-17025D02*
X07250Y-15850D01*
X07800Y-17575D02*
X07250Y-17025D01*
X13400Y-17575D02*
X07800Y-17575D01*
X14415Y-16560D02*
X13400Y-17575D01*
X04789Y-01775D02*
X05375Y-01775D01*
X14600Y-01850D02*
X15250Y-02500D01*
X05450Y-01850D02*
X14600Y-01850D01*
X05375Y-01775D02*
X05450Y-01850D01*
G54D22*
X03189Y-01775D02*
X04789Y-01775D01*
G54D21*
X04775Y-00775D02*
X04852Y-00775D01*
X15350Y-01600D02*
X16250Y-02500D01*
X05677Y-01600D02*
X15350Y-01600D01*
X04852Y-00775D02*
X05677Y-01600D01*
G54D22*
X03175Y-00775D02*
X04775Y-00775D01*
G54D21*
X16900Y-11850D02*
X17100Y-11850D01*
X15250Y-05175D02*
X15575Y-04850D01*
X15575Y-04850D02*
X18525Y-04850D01*
X18525Y-04850D02*
X18850Y-05175D01*
X18850Y-06450D02*
X18850Y-05175D01*
X14400Y-11850D02*
X16900Y-11850D01*
X15250Y-05175D02*
X15250Y-05500D01*
X18850Y-06775D02*
X18850Y-06450D01*
X19150Y-07075D02*
X18850Y-06775D01*
X19223Y-07148D02*
X19150Y-07075D01*
X19223Y-10200D02*
X19223Y-07148D01*
X18873Y-10550D02*
X19223Y-10200D01*
X18400Y-10550D02*
X18873Y-10550D01*
X17100Y-11850D02*
X18400Y-10550D01*
X11250Y-12850D02*
X12150Y-13750D01*
X13390Y-13635D02*
X13390Y-13250D01*
X13275Y-13750D02*
X13390Y-13635D01*
X12150Y-13750D02*
X13275Y-13750D01*
X11250Y-15850D02*
X11250Y-15800D01*
X13390Y-15040D02*
X13390Y-15450D01*
X13200Y-14850D02*
X13390Y-15040D01*
X12200Y-14850D02*
X13200Y-14850D01*
X11250Y-15800D02*
X12200Y-14850D01*
X10250Y-15850D02*
X10250Y-15775D01*
X13645Y-14870D02*
X13645Y-15450D01*
X13400Y-14625D02*
X13645Y-14870D01*
X11400Y-14625D02*
X13400Y-14625D01*
X10250Y-15775D02*
X11400Y-14625D01*
X08250Y-16725D02*
X08250Y-17225D01*
X14160Y-16390D02*
X13177Y-17373D01*
X13177Y-17373D02*
X08398Y-17373D01*
X14160Y-16390D02*
X14160Y-15450D01*
X08250Y-17225D02*
X08398Y-17373D01*
G54D22*
X09850Y-16725D02*
X08250Y-16725D01*
G54D21*
X18775Y-13000D02*
X18775Y-13175D01*
X18775Y-13175D02*
X17248Y-14702D01*
X17248Y-14702D02*
X14473Y-14702D01*
X14473Y-14702D02*
X14160Y-15015D01*
X14160Y-15015D02*
X14160Y-15450D01*
X06250Y-12850D02*
X01300Y-12850D01*
X00100Y-14275D02*
X00825Y-15000D01*
X00100Y-12950D02*
X00100Y-14275D01*
X00525Y-12525D02*
X00100Y-12950D01*
X00975Y-12525D02*
X00525Y-12525D01*
X01300Y-12850D02*
X00975Y-12525D01*
X14670Y-13250D02*
X14670Y-12670D01*
X06825Y-12275D02*
X06250Y-12850D01*
X07475Y-11625D02*
X06825Y-12275D01*
X12900Y-11625D02*
X07475Y-11625D01*
X13445Y-12170D02*
X12900Y-11625D01*
X14170Y-12170D02*
X13445Y-12170D01*
X14670Y-12670D02*
X14170Y-12170D01*
X13900Y-14850D02*
X14000Y-14850D01*
X18000Y-12775D02*
X18775Y-12000D01*
X18000Y-13425D02*
X18000Y-12775D01*
X16925Y-14500D02*
X18000Y-13425D01*
X14350Y-14500D02*
X16925Y-14500D01*
X14000Y-14850D02*
X14350Y-14500D01*
X13900Y-15450D02*
X13900Y-14850D01*
X13900Y-14850D02*
X13900Y-14775D01*
X09250Y-15075D02*
X09250Y-15850D01*
X09923Y-14402D02*
X09250Y-15075D01*
X13527Y-14402D02*
X09923Y-14402D01*
X13900Y-14775D02*
X13527Y-14402D01*
G54D24*
X17200Y-08500D02*
X17200Y-08750D01*
X16800Y-11150D02*
X15875Y-11150D01*
X17700Y-10250D02*
X16800Y-11150D01*
X17700Y-09250D02*
X17700Y-10250D01*
X17200Y-08750D02*
X17700Y-09250D01*
X12250Y-15850D02*
X12450Y-15850D01*
X15325Y-16100D02*
X15350Y-16100D01*
X12725Y-16125D02*
X13300Y-16125D01*
X12450Y-15850D02*
X12725Y-16125D01*
G54D22*
X17750Y-06175D02*
X18525Y-06950D01*
X18525Y-06950D02*
X18525Y-07125D01*
G54D21*
X18225Y-03475D02*
X16975Y-03475D01*
X07225Y-04500D02*
X07100Y-04600D01*
X12475Y-04500D02*
X07225Y-04500D01*
X13025Y-03950D02*
X12475Y-04500D01*
X16500Y-03950D02*
X13025Y-03950D01*
X16975Y-03475D02*
X16500Y-03950D01*
X12250Y-15850D02*
X12735Y-15850D01*
X12735Y-15850D02*
X13135Y-15450D01*
X02925Y-07225D02*
X05325Y-07225D01*
X02700Y-00775D02*
X00775Y-00775D01*
X02700Y-00775D02*
X02775Y-00850D01*
X02775Y-00850D02*
X02775Y-07075D01*
X02775Y-07075D02*
X02925Y-07225D01*
X05325Y-07225D02*
X05425Y-07325D01*
G54D22*
X00775Y-00775D02*
X02375Y-00775D01*
G54D21*
X02300Y-08300D02*
X03900Y-09900D01*
X00700Y-03800D02*
X00250Y-04250D01*
X00250Y-04250D02*
X00250Y-07975D01*
X00250Y-07975D02*
X00575Y-08300D01*
X00575Y-08300D02*
X02300Y-08300D01*
X10343Y-07062D02*
X09730Y-07675D01*
X00700Y-03800D02*
X00800Y-03800D01*
X09505Y-07900D02*
X09730Y-07675D01*
X07550Y-07900D02*
X09505Y-07900D01*
X07000Y-08450D02*
X07550Y-07900D01*
X07000Y-09700D02*
X07000Y-08450D01*
X06800Y-09900D02*
X07000Y-09700D01*
X03900Y-09900D02*
X06800Y-09900D01*
G54D22*
X00800Y-03800D02*
X02400Y-03800D01*
X00800Y-05750D02*
X02400Y-05750D01*
X00789Y-01775D02*
X02389Y-01775D01*
G54D21*
X03050Y-10250D02*
X02275Y-09475D01*
X05750Y-10250D02*
X03050Y-10250D01*
X06200Y-10700D02*
X05750Y-10250D01*
X06450Y-10700D02*
X06200Y-10700D01*
X06450Y-11750D02*
X06775Y-11750D01*
X07900Y-10625D02*
X07900Y-09450D01*
X06775Y-11750D02*
X07900Y-10625D01*
G54D22*
X10550Y-11075D02*
X10550Y-09400D01*
G54D21*
X13200Y-09400D02*
X13200Y-09150D01*
X15800Y-10500D02*
X16750Y-09550D01*
X11850Y-10500D02*
X15800Y-10500D01*
X11000Y-09650D02*
X11850Y-10500D01*
X11000Y-09175D02*
X11000Y-09650D01*
X10725Y-08900D02*
X11000Y-09175D01*
X10300Y-08900D02*
X10725Y-08900D01*
X10000Y-08600D02*
X10300Y-08900D01*
X10000Y-08075D02*
X10000Y-08600D01*
X10125Y-07950D02*
X10000Y-08075D01*
X12000Y-07950D02*
X10125Y-07950D01*
X13200Y-09150D02*
X12000Y-07950D01*
X00800Y-02800D02*
X00500Y-02800D01*
X11731Y-00200D02*
X12343Y-00812D01*
X00650Y-00200D02*
X11731Y-00200D01*
X00175Y-00675D02*
X00650Y-00200D01*
X00175Y-02475D02*
X00175Y-00675D01*
X00500Y-02800D02*
X00175Y-02475D01*
G54D22*
X00800Y-02800D02*
X02400Y-02800D01*
X00775Y-06750D02*
X02375Y-06750D01*
X00775Y-04775D02*
X02375Y-04775D01*
X10650Y-16725D02*
X12250Y-16725D01*
G54D21*
X12750Y-04875D02*
X12750Y-06275D01*
X13225Y-06750D02*
X13225Y-06975D01*
X13225Y-06750D02*
X12775Y-06300D01*
X12750Y-06275D02*
X12775Y-06300D01*
X11250Y-05500D02*
X11450Y-05500D01*
X14075Y-04875D02*
X14725Y-04225D01*
X12075Y-04875D02*
X12750Y-04875D01*
X12750Y-04875D02*
X14075Y-04875D01*
X11450Y-05500D02*
X12075Y-04875D01*
X14725Y-04225D02*
X18225Y-04225D01*
X14200Y-09400D02*
X14200Y-08950D01*
X14200Y-08950D02*
X14500Y-08650D01*
X14500Y-08650D02*
X14500Y-08250D01*
X14500Y-08250D02*
X13225Y-06975D01*
G54D22*
X13225Y-06975D02*
X14825Y-06975D01*
G54D21*
X12250Y-12850D02*
X12740Y-12850D01*
X12740Y-12850D02*
X13140Y-13250D01*
G54D10*
G36*
X13860Y-16266D02*
X13053Y-17073D01*
X12678Y-17073D01*
X12715Y-17036D01*
X12799Y-16834D01*
X12799Y-16616D01*
X12715Y-16414D01*
X12660Y-16359D01*
X12760Y-16223D01*
X12810Y-16010D01*
X12810Y-15900D01*
X12350Y-15900D01*
X12300Y-15900D01*
X12200Y-15900D01*
X12200Y-15800D01*
X12300Y-15800D01*
X12350Y-15800D01*
X12810Y-15800D01*
X12810Y-15796D01*
X12839Y-15866D01*
X12909Y-15936D01*
X13001Y-15974D01*
X13031Y-15975D01*
X13093Y-15913D01*
X13093Y-15863D01*
X13094Y-15866D01*
X13164Y-15936D01*
X13225Y-15961D01*
X13239Y-15975D01*
X13255Y-15974D01*
X13269Y-15974D01*
X13354Y-15974D01*
X13510Y-15974D01*
X13524Y-15974D01*
X13609Y-15974D01*
X13765Y-15974D01*
X13779Y-15974D01*
X13860Y-15974D01*
X13860Y-16266D01*
X13860Y-16266D01*
G37*
G54D21*
X13860Y-16266D02*
X13053Y-17073D01*
X12678Y-17073D01*
X12715Y-17036D01*
X12799Y-16834D01*
X12799Y-16616D01*
X12715Y-16414D01*
X12660Y-16359D01*
X12760Y-16223D01*
X12810Y-16010D01*
X12810Y-15900D01*
X12350Y-15900D01*
X12300Y-15900D01*
X12200Y-15900D01*
X12200Y-15800D01*
X12300Y-15800D01*
X12350Y-15800D01*
X12810Y-15800D01*
X12810Y-15796D01*
X12839Y-15866D01*
X12909Y-15936D01*
X13001Y-15974D01*
X13031Y-15975D01*
X13093Y-15913D01*
X13093Y-15863D01*
X13094Y-15866D01*
X13164Y-15936D01*
X13225Y-15961D01*
X13239Y-15975D01*
X13255Y-15974D01*
X13269Y-15974D01*
X13354Y-15974D01*
X13510Y-15974D01*
X13524Y-15974D01*
X13609Y-15974D01*
X13765Y-15974D01*
X13779Y-15974D01*
X13860Y-15974D01*
X13860Y-16266D01*
G54D10*
G36*
X18909Y-07258D02*
X18770Y-07200D01*
X18581Y-07200D01*
X18406Y-07272D01*
X18273Y-07406D01*
X18271Y-07410D01*
X18270Y-07410D01*
X18234Y-07435D01*
X17984Y-07685D01*
X15740Y-07685D01*
X15705Y-07661D01*
X15575Y-07635D01*
X15450Y-07635D01*
X15320Y-07661D01*
X15298Y-07675D01*
X15420Y-07554D01*
X15440Y-07524D01*
X15474Y-07524D01*
X15874Y-07524D01*
X15966Y-07486D01*
X16036Y-07416D01*
X16074Y-07325D01*
X16074Y-07300D01*
X16774Y-07300D01*
X16914Y-07440D01*
X17116Y-07524D01*
X17334Y-07524D01*
X17536Y-07440D01*
X17690Y-07286D01*
X17774Y-07084D01*
X17774Y-06866D01*
X17690Y-06664D01*
X17550Y-06524D01*
X17550Y-06122D01*
X17561Y-06118D01*
X17715Y-05964D01*
X17750Y-05879D01*
X17785Y-05964D01*
X17939Y-06118D01*
X18141Y-06202D01*
X18359Y-06202D01*
X18550Y-06122D01*
X18550Y-06450D01*
X18550Y-06775D01*
X18573Y-06890D01*
X18638Y-06987D01*
X18909Y-07258D01*
X18909Y-07258D01*
G37*
G54D21*
X18909Y-07258D02*
X18770Y-07200D01*
X18581Y-07200D01*
X18406Y-07272D01*
X18273Y-07406D01*
X18271Y-07410D01*
X18270Y-07410D01*
X18234Y-07435D01*
X17984Y-07685D01*
X15740Y-07685D01*
X15705Y-07661D01*
X15575Y-07635D01*
X15450Y-07635D01*
X15320Y-07661D01*
X15298Y-07675D01*
X15420Y-07554D01*
X15440Y-07524D01*
X15474Y-07524D01*
X15874Y-07524D01*
X15966Y-07486D01*
X16036Y-07416D01*
X16074Y-07325D01*
X16074Y-07300D01*
X16774Y-07300D01*
X16914Y-07440D01*
X17116Y-07524D01*
X17334Y-07524D01*
X17536Y-07440D01*
X17690Y-07286D01*
X17774Y-07084D01*
X17774Y-06866D01*
X17690Y-06664D01*
X17550Y-06524D01*
X17550Y-06122D01*
X17561Y-06118D01*
X17715Y-05964D01*
X17750Y-05879D01*
X17785Y-05964D01*
X17939Y-06118D01*
X18141Y-06202D01*
X18359Y-06202D01*
X18550Y-06122D01*
X18550Y-06450D01*
X18550Y-06775D01*
X18573Y-06890D01*
X18638Y-06987D01*
X18909Y-07258D01*
G54D10*
G36*
X18923Y-08475D02*
X18887Y-08475D01*
X18825Y-08537D01*
X18825Y-08900D01*
X18825Y-08950D01*
X18825Y-09050D01*
X18725Y-09050D01*
X18725Y-08950D01*
X18725Y-08537D01*
X18663Y-08475D01*
X18549Y-08476D01*
X18450Y-08476D01*
X18359Y-08514D01*
X18289Y-08584D01*
X18251Y-08676D01*
X18250Y-08888D01*
X18312Y-08950D01*
X18725Y-08950D01*
X18725Y-09050D01*
X18675Y-09050D01*
X18312Y-09050D01*
X18250Y-09112D01*
X18251Y-09324D01*
X18289Y-09416D01*
X18359Y-09486D01*
X18450Y-09524D01*
X18549Y-09524D01*
X18478Y-09555D01*
X18330Y-09702D01*
X18250Y-09895D01*
X18250Y-10104D01*
X18317Y-10266D01*
X18285Y-10273D01*
X18188Y-10338D01*
X17490Y-11036D01*
X17490Y-08861D01*
X17200Y-08571D01*
X16910Y-08861D01*
X16933Y-08952D01*
X17126Y-09019D01*
X17330Y-09008D01*
X17467Y-08952D01*
X17490Y-08861D01*
X17490Y-11036D01*
X16976Y-11550D01*
X16900Y-11550D01*
X14836Y-11550D01*
X14861Y-11540D01*
X15015Y-11386D01*
X15099Y-11184D01*
X15099Y-10966D01*
X15029Y-10800D01*
X15800Y-10800D01*
X15915Y-10777D01*
X16012Y-10712D01*
X16629Y-10094D01*
X16641Y-10099D01*
X16859Y-10099D01*
X17061Y-10015D01*
X17215Y-09861D01*
X17299Y-09659D01*
X17299Y-09441D01*
X17215Y-09239D01*
X17061Y-09085D01*
X16859Y-09001D01*
X16641Y-09001D01*
X16439Y-09085D01*
X16285Y-09239D01*
X16201Y-09441D01*
X16201Y-09659D01*
X16205Y-09670D01*
X15676Y-10200D01*
X15455Y-10200D01*
X15690Y-09966D01*
X15690Y-09965D01*
X15764Y-09855D01*
X15789Y-09725D01*
X15790Y-09725D01*
X15790Y-08988D01*
X15875Y-09024D01*
X15974Y-09024D01*
X16524Y-09024D01*
X16616Y-08986D01*
X16686Y-08916D01*
X16724Y-08825D01*
X16724Y-08726D01*
X16724Y-08708D01*
X16748Y-08767D01*
X16839Y-08790D01*
X17094Y-08535D01*
X17129Y-08500D01*
X17200Y-08429D01*
X17271Y-08500D01*
X17306Y-08535D01*
X17561Y-08790D01*
X17652Y-08767D01*
X17719Y-08574D01*
X17708Y-08370D01*
X17705Y-08365D01*
X18125Y-08365D01*
X18125Y-08364D01*
X18255Y-08339D01*
X18365Y-08265D01*
X18509Y-08120D01*
X18580Y-08150D01*
X18769Y-08150D01*
X18923Y-08086D01*
X18923Y-08475D01*
X18923Y-08475D01*
G37*
G54D21*
X18923Y-08475D02*
X18887Y-08475D01*
X18825Y-08537D01*
X18825Y-08900D01*
X18825Y-08950D01*
X18825Y-09050D01*
X18725Y-09050D01*
X18725Y-08950D01*
X18725Y-08537D01*
X18663Y-08475D01*
X18549Y-08476D01*
X18450Y-08476D01*
X18359Y-08514D01*
X18289Y-08584D01*
X18251Y-08676D01*
X18250Y-08888D01*
X18312Y-08950D01*
X18725Y-08950D01*
X18725Y-09050D01*
X18675Y-09050D01*
X18312Y-09050D01*
X18250Y-09112D01*
X18251Y-09324D01*
X18289Y-09416D01*
X18359Y-09486D01*
X18450Y-09524D01*
X18549Y-09524D01*
X18478Y-09555D01*
X18330Y-09702D01*
X18250Y-09895D01*
X18250Y-10104D01*
X18317Y-10266D01*
X18285Y-10273D01*
X18188Y-10338D01*
X17490Y-11036D01*
X17490Y-08861D01*
X17200Y-08571D01*
X16910Y-08861D01*
X16933Y-08952D01*
X17126Y-09019D01*
X17330Y-09008D01*
X17467Y-08952D01*
X17490Y-08861D01*
X17490Y-11036D01*
X16976Y-11550D01*
X16900Y-11550D01*
X14836Y-11550D01*
X14861Y-11540D01*
X15015Y-11386D01*
X15099Y-11184D01*
X15099Y-10966D01*
X15029Y-10800D01*
X15800Y-10800D01*
X15915Y-10777D01*
X16012Y-10712D01*
X16629Y-10094D01*
X16641Y-10099D01*
X16859Y-10099D01*
X17061Y-10015D01*
X17215Y-09861D01*
X17299Y-09659D01*
X17299Y-09441D01*
X17215Y-09239D01*
X17061Y-09085D01*
X16859Y-09001D01*
X16641Y-09001D01*
X16439Y-09085D01*
X16285Y-09239D01*
X16201Y-09441D01*
X16201Y-09659D01*
X16205Y-09670D01*
X15676Y-10200D01*
X15455Y-10200D01*
X15690Y-09966D01*
X15690Y-09965D01*
X15764Y-09855D01*
X15789Y-09725D01*
X15790Y-09725D01*
X15790Y-08988D01*
X15875Y-09024D01*
X15974Y-09024D01*
X16524Y-09024D01*
X16616Y-08986D01*
X16686Y-08916D01*
X16724Y-08825D01*
X16724Y-08726D01*
X16724Y-08708D01*
X16748Y-08767D01*
X16839Y-08790D01*
X17094Y-08535D01*
X17129Y-08500D01*
X17200Y-08429D01*
X17271Y-08500D01*
X17306Y-08535D01*
X17561Y-08790D01*
X17652Y-08767D01*
X17719Y-08574D01*
X17708Y-08370D01*
X17705Y-08365D01*
X18125Y-08365D01*
X18125Y-08364D01*
X18255Y-08339D01*
X18365Y-08265D01*
X18509Y-08120D01*
X18580Y-08150D01*
X18769Y-08150D01*
X18923Y-08086D01*
X18923Y-08475D01*
G54D10*
G36*
X19325Y-04776D02*
X18937Y-04388D01*
X18840Y-04323D01*
X18810Y-04316D01*
X18810Y-02660D01*
X18810Y-02550D01*
X18810Y-02450D01*
X18810Y-02340D01*
X18760Y-02127D01*
X18632Y-01950D01*
X18446Y-01835D01*
X18387Y-01818D01*
X18300Y-01865D01*
X18300Y-02450D01*
X18810Y-02450D01*
X18810Y-02550D01*
X18300Y-02550D01*
X18300Y-03087D01*
X18275Y-03112D01*
X18275Y-03425D01*
X18688Y-03425D01*
X18750Y-03363D01*
X18749Y-03251D01*
X18711Y-03159D01*
X18641Y-03089D01*
X18597Y-03071D01*
X18632Y-03050D01*
X18760Y-02873D01*
X18810Y-02660D01*
X18810Y-04316D01*
X18749Y-04304D01*
X18749Y-04001D01*
X18711Y-03909D01*
X18652Y-03850D01*
X18711Y-03791D01*
X18749Y-03699D01*
X18750Y-03587D01*
X18688Y-03525D01*
X18325Y-03525D01*
X18275Y-03525D01*
X18175Y-03525D01*
X18125Y-03525D01*
X17762Y-03525D01*
X17700Y-03587D01*
X17701Y-03699D01*
X17739Y-03791D01*
X17798Y-03850D01*
X17739Y-03909D01*
X17732Y-03925D01*
X14725Y-03925D01*
X14610Y-03948D01*
X14513Y-04013D01*
X13951Y-04575D01*
X12750Y-04575D01*
X12075Y-04575D01*
X11960Y-04598D01*
X11862Y-04663D01*
X11602Y-04923D01*
X11561Y-04882D01*
X11359Y-04798D01*
X11141Y-04798D01*
X10939Y-04882D01*
X10785Y-05036D01*
X10701Y-05238D01*
X10701Y-05456D01*
X10701Y-05762D01*
X10785Y-05964D01*
X10896Y-06075D01*
X06875Y-06075D01*
X06760Y-06098D01*
X06663Y-06163D01*
X06563Y-06262D01*
X06535Y-06250D01*
X06375Y-06250D01*
X06375Y-04974D01*
X06799Y-04550D01*
X12161Y-04550D01*
X12276Y-04527D01*
X12373Y-04462D01*
X12960Y-03875D01*
X13150Y-03875D01*
X16175Y-03875D01*
X16290Y-03852D01*
X16387Y-03787D01*
X17021Y-03152D01*
X17141Y-03202D01*
X17359Y-03202D01*
X17561Y-03118D01*
X17715Y-02964D01*
X17748Y-02884D01*
X17868Y-03050D01*
X17881Y-03058D01*
X17809Y-03089D01*
X17739Y-03159D01*
X17701Y-03251D01*
X17700Y-03363D01*
X17762Y-03425D01*
X18175Y-03425D01*
X18175Y-03148D01*
X18200Y-03135D01*
X18200Y-02600D01*
X18200Y-02550D01*
X18200Y-02450D01*
X18200Y-02400D01*
X18200Y-01865D01*
X18113Y-01818D01*
X18054Y-01835D01*
X17868Y-01950D01*
X17748Y-02115D01*
X17715Y-02036D01*
X17561Y-01882D01*
X17359Y-01798D01*
X17141Y-01798D01*
X16939Y-01882D01*
X16785Y-02036D01*
X16750Y-02120D01*
X16715Y-02036D01*
X16561Y-01882D01*
X16359Y-01798D01*
X16141Y-01798D01*
X16021Y-01847D01*
X15562Y-01388D01*
X15465Y-01323D01*
X15350Y-01300D01*
X12598Y-01300D01*
X12654Y-01277D01*
X12808Y-01123D01*
X12892Y-00921D01*
X12892Y-00703D01*
X12808Y-00501D01*
X12654Y-00347D01*
X12601Y-00325D01*
X19325Y-00325D01*
X19325Y-04776D01*
X19325Y-04776D01*
G37*
G54D21*
X19325Y-04776D02*
X18937Y-04388D01*
X18840Y-04323D01*
X18810Y-04316D01*
X18810Y-02660D01*
X18810Y-02550D01*
X18810Y-02450D01*
X18810Y-02340D01*
X18760Y-02127D01*
X18632Y-01950D01*
X18446Y-01835D01*
X18387Y-01818D01*
X18300Y-01865D01*
X18300Y-02450D01*
X18810Y-02450D01*
X18810Y-02550D01*
X18300Y-02550D01*
X18300Y-03087D01*
X18275Y-03112D01*
X18275Y-03425D01*
X18688Y-03425D01*
X18750Y-03363D01*
X18749Y-03251D01*
X18711Y-03159D01*
X18641Y-03089D01*
X18597Y-03071D01*
X18632Y-03050D01*
X18760Y-02873D01*
X18810Y-02660D01*
X18810Y-04316D01*
X18749Y-04304D01*
X18749Y-04001D01*
X18711Y-03909D01*
X18652Y-03850D01*
X18711Y-03791D01*
X18749Y-03699D01*
X18750Y-03587D01*
X18688Y-03525D01*
X18325Y-03525D01*
X18275Y-03525D01*
X18175Y-03525D01*
X18125Y-03525D01*
X17762Y-03525D01*
X17700Y-03587D01*
X17701Y-03699D01*
X17739Y-03791D01*
X17798Y-03850D01*
X17739Y-03909D01*
X17732Y-03925D01*
X14725Y-03925D01*
X14610Y-03948D01*
X14513Y-04013D01*
X13951Y-04575D01*
X12750Y-04575D01*
X12075Y-04575D01*
X11960Y-04598D01*
X11862Y-04663D01*
X11602Y-04923D01*
X11561Y-04882D01*
X11359Y-04798D01*
X11141Y-04798D01*
X10939Y-04882D01*
X10785Y-05036D01*
X10701Y-05238D01*
X10701Y-05456D01*
X10701Y-05762D01*
X10785Y-05964D01*
X10896Y-06075D01*
X06875Y-06075D01*
X06760Y-06098D01*
X06663Y-06163D01*
X06563Y-06262D01*
X06535Y-06250D01*
X06375Y-06250D01*
X06375Y-04974D01*
X06799Y-04550D01*
X12161Y-04550D01*
X12276Y-04527D01*
X12373Y-04462D01*
X12960Y-03875D01*
X13150Y-03875D01*
X16175Y-03875D01*
X16290Y-03852D01*
X16387Y-03787D01*
X17021Y-03152D01*
X17141Y-03202D01*
X17359Y-03202D01*
X17561Y-03118D01*
X17715Y-02964D01*
X17748Y-02884D01*
X17868Y-03050D01*
X17881Y-03058D01*
X17809Y-03089D01*
X17739Y-03159D01*
X17701Y-03251D01*
X17700Y-03363D01*
X17762Y-03425D01*
X18175Y-03425D01*
X18175Y-03148D01*
X18200Y-03135D01*
X18200Y-02600D01*
X18200Y-02550D01*
X18200Y-02450D01*
X18200Y-02400D01*
X18200Y-01865D01*
X18113Y-01818D01*
X18054Y-01835D01*
X17868Y-01950D01*
X17748Y-02115D01*
X17715Y-02036D01*
X17561Y-01882D01*
X17359Y-01798D01*
X17141Y-01798D01*
X16939Y-01882D01*
X16785Y-02036D01*
X16750Y-02120D01*
X16715Y-02036D01*
X16561Y-01882D01*
X16359Y-01798D01*
X16141Y-01798D01*
X16021Y-01847D01*
X15562Y-01388D01*
X15465Y-01323D01*
X15350Y-01300D01*
X12598Y-01300D01*
X12654Y-01277D01*
X12808Y-01123D01*
X12892Y-00921D01*
X12892Y-00703D01*
X12808Y-00501D01*
X12654Y-00347D01*
X12601Y-00325D01*
X19325Y-00325D01*
X19325Y-04776D01*
G54D10*
G36*
X19325Y-19325D02*
X12862Y-19325D01*
X12862Y-18578D01*
X12851Y-18374D01*
X12795Y-18237D01*
X12704Y-18214D01*
X12414Y-18504D01*
X12704Y-18794D01*
X12795Y-18771D01*
X12862Y-18578D01*
X12862Y-19325D01*
X12633Y-19325D01*
X12633Y-18865D01*
X12343Y-18575D01*
X12053Y-18865D01*
X12076Y-18956D01*
X12269Y-19023D01*
X12473Y-19012D01*
X12610Y-18956D01*
X12633Y-18865D01*
X12633Y-19325D01*
X00325Y-19325D01*
X00325Y-15164D01*
X00380Y-15297D01*
X00527Y-15445D01*
X00720Y-15525D01*
X00929Y-15525D01*
X01122Y-15445D01*
X01270Y-15298D01*
X01350Y-15105D01*
X01350Y-14896D01*
X01326Y-14839D01*
X01390Y-14827D01*
X01487Y-14762D01*
X01899Y-14350D01*
X07050Y-14350D01*
X07165Y-14327D01*
X07262Y-14262D01*
X08021Y-13502D01*
X08088Y-13530D01*
X08075Y-13600D01*
X08098Y-13715D01*
X08163Y-13812D01*
X08260Y-13877D01*
X08375Y-13900D01*
X08400Y-13900D01*
X08515Y-13877D01*
X08612Y-13812D01*
X08677Y-13715D01*
X08700Y-13600D01*
X08677Y-13485D01*
X08623Y-13405D01*
X08715Y-13314D01*
X08750Y-13229D01*
X08785Y-13314D01*
X08939Y-13468D01*
X09141Y-13552D01*
X09359Y-13552D01*
X09477Y-13502D01*
X09787Y-13812D01*
X09788Y-13812D01*
X09789Y-13813D01*
X10077Y-14102D01*
X09923Y-14102D01*
X09808Y-14125D01*
X09710Y-14190D01*
X09038Y-14863D01*
X08973Y-14960D01*
X08950Y-15075D01*
X08950Y-15227D01*
X08939Y-15232D01*
X08785Y-15386D01*
X08750Y-15470D01*
X08715Y-15386D01*
X08561Y-15232D01*
X08359Y-15148D01*
X08141Y-15148D01*
X07939Y-15232D01*
X07785Y-15386D01*
X07750Y-15470D01*
X07715Y-15386D01*
X07561Y-15232D01*
X07359Y-15148D01*
X07141Y-15148D01*
X06939Y-15232D01*
X06785Y-15386D01*
X06750Y-15470D01*
X06715Y-15386D01*
X06561Y-15232D01*
X06359Y-15148D01*
X06141Y-15148D01*
X05939Y-15232D01*
X05785Y-15386D01*
X05701Y-15588D01*
X05701Y-15806D01*
X05701Y-16112D01*
X05785Y-16314D01*
X05939Y-16468D01*
X05950Y-16472D01*
X05950Y-17000D01*
X05973Y-17115D01*
X06038Y-17212D01*
X06838Y-18012D01*
X06894Y-18050D01*
X06857Y-18088D01*
X06819Y-18179D01*
X06819Y-18278D01*
X06819Y-18828D01*
X06857Y-18920D01*
X06927Y-18990D01*
X07018Y-19028D01*
X07117Y-19028D01*
X07667Y-19028D01*
X07759Y-18990D01*
X07829Y-18920D01*
X07867Y-18829D01*
X07867Y-18730D01*
X07867Y-18726D01*
X07898Y-18801D01*
X08045Y-18949D01*
X08238Y-19029D01*
X08447Y-19029D01*
X08640Y-18949D01*
X08788Y-18802D01*
X08843Y-18668D01*
X08898Y-18801D01*
X09045Y-18949D01*
X09238Y-19029D01*
X09447Y-19029D01*
X09640Y-18949D01*
X09788Y-18802D01*
X09843Y-18668D01*
X09898Y-18801D01*
X10045Y-18949D01*
X10238Y-19029D01*
X10447Y-19029D01*
X10640Y-18949D01*
X10788Y-18802D01*
X10843Y-18668D01*
X10898Y-18801D01*
X11045Y-18949D01*
X11238Y-19029D01*
X11447Y-19029D01*
X11640Y-18949D01*
X11788Y-18802D01*
X11846Y-18661D01*
X11891Y-18771D01*
X11982Y-18794D01*
X12272Y-18504D01*
X11982Y-18214D01*
X11891Y-18237D01*
X11849Y-18355D01*
X11788Y-18207D01*
X11681Y-18100D01*
X12063Y-18100D01*
X12053Y-18143D01*
X12343Y-18433D01*
X12633Y-18143D01*
X12622Y-18100D01*
X13550Y-18100D01*
X13665Y-18077D01*
X13762Y-18012D01*
X14881Y-16893D01*
X14881Y-16892D01*
X14882Y-16892D01*
X14947Y-16795D01*
X14969Y-16681D01*
X14970Y-16680D01*
X14970Y-15856D01*
X15004Y-15775D01*
X15004Y-15750D01*
X18325Y-15750D01*
X18440Y-15727D01*
X18537Y-15662D01*
X18674Y-15525D01*
X18879Y-15525D01*
X19072Y-15445D01*
X19220Y-15298D01*
X19300Y-15105D01*
X19300Y-14896D01*
X19220Y-14703D01*
X19073Y-14555D01*
X18939Y-14499D01*
X19072Y-14445D01*
X19220Y-14298D01*
X19300Y-14105D01*
X19300Y-13899D01*
X19325Y-13874D01*
X19325Y-19325D01*
X19325Y-19325D01*
G37*
G54D21*
X19325Y-19325D02*
X12862Y-19325D01*
X12862Y-18578D01*
X12851Y-18374D01*
X12795Y-18237D01*
X12704Y-18214D01*
X12414Y-18504D01*
X12704Y-18794D01*
X12795Y-18771D01*
X12862Y-18578D01*
X12862Y-19325D01*
X12633Y-19325D01*
X12633Y-18865D01*
X12343Y-18575D01*
X12053Y-18865D01*
X12076Y-18956D01*
X12269Y-19023D01*
X12473Y-19012D01*
X12610Y-18956D01*
X12633Y-18865D01*
X12633Y-19325D01*
X00325Y-19325D01*
X00325Y-15164D01*
X00380Y-15297D01*
X00527Y-15445D01*
X00720Y-15525D01*
X00929Y-15525D01*
X01122Y-15445D01*
X01270Y-15298D01*
X01350Y-15105D01*
X01350Y-14896D01*
X01326Y-14839D01*
X01390Y-14827D01*
X01487Y-14762D01*
X01899Y-14350D01*
X07050Y-14350D01*
X07165Y-14327D01*
X07262Y-14262D01*
X08021Y-13502D01*
X08088Y-13530D01*
X08075Y-13600D01*
X08098Y-13715D01*
X08163Y-13812D01*
X08260Y-13877D01*
X08375Y-13900D01*
X08400Y-13900D01*
X08515Y-13877D01*
X08612Y-13812D01*
X08677Y-13715D01*
X08700Y-13600D01*
X08677Y-13485D01*
X08623Y-13405D01*
X08715Y-13314D01*
X08750Y-13229D01*
X08785Y-13314D01*
X08939Y-13468D01*
X09141Y-13552D01*
X09359Y-13552D01*
X09477Y-13502D01*
X09787Y-13812D01*
X09788Y-13812D01*
X09789Y-13813D01*
X10077Y-14102D01*
X09923Y-14102D01*
X09808Y-14125D01*
X09710Y-14190D01*
X09038Y-14863D01*
X08973Y-14960D01*
X08950Y-15075D01*
X08950Y-15227D01*
X08939Y-15232D01*
X08785Y-15386D01*
X08750Y-15470D01*
X08715Y-15386D01*
X08561Y-15232D01*
X08359Y-15148D01*
X08141Y-15148D01*
X07939Y-15232D01*
X07785Y-15386D01*
X07750Y-15470D01*
X07715Y-15386D01*
X07561Y-15232D01*
X07359Y-15148D01*
X07141Y-15148D01*
X06939Y-15232D01*
X06785Y-15386D01*
X06750Y-15470D01*
X06715Y-15386D01*
X06561Y-15232D01*
X06359Y-15148D01*
X06141Y-15148D01*
X05939Y-15232D01*
X05785Y-15386D01*
X05701Y-15588D01*
X05701Y-15806D01*
X05701Y-16112D01*
X05785Y-16314D01*
X05939Y-16468D01*
X05950Y-16472D01*
X05950Y-17000D01*
X05973Y-17115D01*
X06038Y-17212D01*
X06838Y-18012D01*
X06894Y-18050D01*
X06857Y-18088D01*
X06819Y-18179D01*
X06819Y-18278D01*
X06819Y-18828D01*
X06857Y-18920D01*
X06927Y-18990D01*
X07018Y-19028D01*
X07117Y-19028D01*
X07667Y-19028D01*
X07759Y-18990D01*
X07829Y-18920D01*
X07867Y-18829D01*
X07867Y-18730D01*
X07867Y-18726D01*
X07898Y-18801D01*
X08045Y-18949D01*
X08238Y-19029D01*
X08447Y-19029D01*
X08640Y-18949D01*
X08788Y-18802D01*
X08843Y-18668D01*
X08898Y-18801D01*
X09045Y-18949D01*
X09238Y-19029D01*
X09447Y-19029D01*
X09640Y-18949D01*
X09788Y-18802D01*
X09843Y-18668D01*
X09898Y-18801D01*
X10045Y-18949D01*
X10238Y-19029D01*
X10447Y-19029D01*
X10640Y-18949D01*
X10788Y-18802D01*
X10843Y-18668D01*
X10898Y-18801D01*
X11045Y-18949D01*
X11238Y-19029D01*
X11447Y-19029D01*
X11640Y-18949D01*
X11788Y-18802D01*
X11846Y-18661D01*
X11891Y-18771D01*
X11982Y-18794D01*
X12272Y-18504D01*
X11982Y-18214D01*
X11891Y-18237D01*
X11849Y-18355D01*
X11788Y-18207D01*
X11681Y-18100D01*
X12063Y-18100D01*
X12053Y-18143D01*
X12343Y-18433D01*
X12633Y-18143D01*
X12622Y-18100D01*
X13550Y-18100D01*
X13665Y-18077D01*
X13762Y-18012D01*
X14881Y-16893D01*
X14881Y-16892D01*
X14882Y-16892D01*
X14947Y-16795D01*
X14969Y-16681D01*
X14970Y-16680D01*
X14970Y-15856D01*
X15004Y-15775D01*
X15004Y-15750D01*
X18325Y-15750D01*
X18440Y-15727D01*
X18537Y-15662D01*
X18674Y-15525D01*
X18879Y-15525D01*
X19072Y-15445D01*
X19220Y-15298D01*
X19300Y-15105D01*
X19300Y-14896D01*
X19220Y-14703D01*
X19073Y-14555D01*
X18939Y-14499D01*
X19072Y-14445D01*
X19220Y-14298D01*
X19300Y-14105D01*
X19300Y-13899D01*
X19325Y-13874D01*
X19325Y-19325D01*
M02*
