M48
INCH,TZ
T1C0.020
T2C0.025
T3C0.032
%
G90
G05
T1
X2275Y-9475
X5425Y-7325
X6450Y-6675
X6550Y-7200
X7100Y-4600
X14400Y-11850
X14800Y-8100
T2
X5575Y-5300
X13300Y-16125
X15325Y-16100
X15875Y-11150
X17750Y-6175
X18525Y-7125
X18675Y-7675
T3
X775Y-775
X775Y-4775
X775Y-6750
X789Y-1775
X800Y-2800
X800Y-3800
X800Y-5750
X800Y-7750
X825Y-9000
X825Y-10000
X825Y-11000
X825Y-12000
X825Y-13000
X825Y-14000
X825Y-15000
X2450Y-10700
X2450Y-11750
X4775Y-775
X4775Y-4775
X4775Y-6750
X4789Y-1775
X4800Y-2800
X4800Y-3800
X4800Y-5750
X4800Y-7750
X5250Y-8450
X5250Y-9450
X6250Y-9450
X6250Y-12850
X6250Y-15850
X6450Y-10700
X6450Y-11750
X7250Y-12850
X7250Y-15850
X7343Y-812
X7343Y-7062
X7343Y-18504
X7900Y-8450
X7900Y-9450
X8250Y-12850
X8250Y-15850
X8250Y-16725
X8343Y-812
X8343Y-7062
X8343Y-18504
X8900Y-9450
X9250Y-12850
X9250Y-15850
X9343Y-812
X9343Y-7062
X9343Y-18504
X10250Y-12850
X10250Y-15850
X10343Y-812
X10343Y-7062
X10343Y-18504
X10550Y-8400
X10550Y-9400
X10550Y-11075
X11250Y-2500
X11250Y-5500
X11250Y-12850
X11250Y-15850
X11343Y-812
X11343Y-7062
X11343Y-18504
X11550Y-9400
X12250Y-2500
X12250Y-5500
X12250Y-12850
X12250Y-15850
X12250Y-16725
X12343Y-812
X12343Y-7062
X12343Y-18504
X13200Y-8400
X13200Y-9400
X13225Y-6975
X13250Y-2500
X13250Y-5500
X14200Y-9400
X14250Y-2500
X14250Y-5500
X14550Y-11075
X15250Y-2500
X15250Y-5500
X16200Y-8500
X16250Y-2500
X16250Y-5500
X16750Y-9550
X16750Y-13550
X17200Y-8500
X17225Y-6975
X17250Y-2500
X17250Y-5500
X18250Y-2500
X18250Y-5500
X18775Y-9000
X18775Y-10000
X18775Y-11000
X18775Y-12000
X18775Y-13000
X18775Y-14000
X18775Y-15000
T0
M30
