G04 (created by PCBNEW-RS274X (2011-05-25)-stable) date Sun 14 Oct 2012 04:31:26 PM CDT*
G01*
G70*
G90*
%MOIN*%
G04 Gerber Fmt 3.4, Leading zero omitted, Abs format*
%FSLAX34Y34*%
G04 APERTURE LIST*
%ADD10C,0.006000*%
%ADD11R,0.036000X0.036000*%
%ADD12R,0.020000X0.045000*%
%ADD13R,0.055000X0.055000*%
%ADD14C,0.055000*%
%ADD15R,0.062000X0.090000*%
%ADD16O,0.062000X0.090000*%
%ADD17R,0.150000X0.055000*%
%ADD18C,0.060000*%
%ADD19R,0.063000X0.055100*%
%ADD20R,0.055000X0.035000*%
%ADD21R,0.040000X0.060000*%
%ADD22R,0.060000X0.040000*%
%ADD23C,0.035000*%
%ADD24C,0.045000*%
%ADD25C,0.010000*%
%ADD26C,0.018000*%
%ADD27C,0.030000*%
%ADD28C,0.015000*%
%ADD29C,0.020000*%
G04 APERTURE END LIST*
G54D10*
G54D11*
X06250Y-09100D03*
X05550Y-09100D03*
X05900Y-08300D03*
X08900Y-09100D03*
X08200Y-09100D03*
X08550Y-08300D03*
X11550Y-09100D03*
X10850Y-09100D03*
X11200Y-08300D03*
X14200Y-09100D03*
X13500Y-09100D03*
X13850Y-08300D03*
G54D12*
X09600Y-05200D03*
X08600Y-05200D03*
X08100Y-05200D03*
X07600Y-05200D03*
X07100Y-05200D03*
X06600Y-05200D03*
X06100Y-05200D03*
X06100Y-02700D03*
X06600Y-02700D03*
X07100Y-02700D03*
X07600Y-02700D03*
X08100Y-02700D03*
X08600Y-02700D03*
X09100Y-02700D03*
X09600Y-02700D03*
X09100Y-05200D03*
G54D13*
X16200Y-08500D03*
G54D14*
X17200Y-08500D03*
G54D15*
X12250Y-12850D03*
G54D16*
X11250Y-12850D03*
X10250Y-12850D03*
X09250Y-12850D03*
X08250Y-12850D03*
X07250Y-12850D03*
X06250Y-12850D03*
X06250Y-15850D03*
X07250Y-15850D03*
X08250Y-15850D03*
X09250Y-15850D03*
X10250Y-15850D03*
X11250Y-15850D03*
X12250Y-15850D03*
G54D17*
X15050Y-13400D03*
X15050Y-15200D03*
G54D18*
X07343Y-07062D03*
X08343Y-07062D03*
X09343Y-07062D03*
X10343Y-07062D03*
X11343Y-07062D03*
X12343Y-07062D03*
X07343Y-00812D03*
X08343Y-00812D03*
X09343Y-00812D03*
X10343Y-00812D03*
X11343Y-00812D03*
X12343Y-00812D03*
X13225Y-06975D03*
X17225Y-06975D03*
X12250Y-16725D03*
X08250Y-16725D03*
G54D19*
X18583Y-16831D03*
X15275Y-16831D03*
X18583Y-18603D03*
X15275Y-18603D03*
X04410Y-16831D03*
X01102Y-16831D03*
X04410Y-18603D03*
X01102Y-18603D03*
G54D13*
X00825Y-09000D03*
G54D14*
X00825Y-10000D03*
X00825Y-11000D03*
X00825Y-12000D03*
X00825Y-13000D03*
X00825Y-14000D03*
X00825Y-15000D03*
G54D13*
X18775Y-09000D03*
G54D14*
X18775Y-10000D03*
X18775Y-11000D03*
X18775Y-12000D03*
X18775Y-13000D03*
X18775Y-14000D03*
X18775Y-15000D03*
G54D20*
X13800Y-13975D03*
X13800Y-14725D03*
G54D13*
X07343Y-18504D03*
G54D14*
X08343Y-18504D03*
X09343Y-18504D03*
X10343Y-18504D03*
X11343Y-18504D03*
X12343Y-18504D03*
G54D18*
X06450Y-10700D03*
X02450Y-10700D03*
G54D21*
X04850Y-10700D03*
X04050Y-10700D03*
G54D18*
X06450Y-11750D03*
X02450Y-11750D03*
G54D21*
X04850Y-11750D03*
X04050Y-11750D03*
G54D18*
X10550Y-11075D03*
X14550Y-11075D03*
G54D21*
X12150Y-11075D03*
X12950Y-11075D03*
G54D18*
X16750Y-09550D03*
X16750Y-13550D03*
G54D22*
X16750Y-11150D03*
X16750Y-11950D03*
G54D13*
X06250Y-09450D03*
G54D14*
X05250Y-09450D03*
X05250Y-08450D03*
G54D13*
X08900Y-09450D03*
G54D14*
X07900Y-09450D03*
X07900Y-08450D03*
G54D13*
X11550Y-09400D03*
G54D14*
X10550Y-09400D03*
X10550Y-08400D03*
G54D13*
X14200Y-09400D03*
G54D14*
X13200Y-09400D03*
X13200Y-08400D03*
G54D15*
X11250Y-02500D03*
G54D16*
X12250Y-02500D03*
X13250Y-02500D03*
X14250Y-02500D03*
X15250Y-02500D03*
X16250Y-02500D03*
X17250Y-02500D03*
X18250Y-02500D03*
X18250Y-05500D03*
X17250Y-05500D03*
X16250Y-05500D03*
X15250Y-05500D03*
X14250Y-05500D03*
X13250Y-05500D03*
X12250Y-05500D03*
X11250Y-05500D03*
G54D18*
X00775Y-06750D03*
X04775Y-06750D03*
X00800Y-02800D03*
X04800Y-02800D03*
X00800Y-03800D03*
X04800Y-03800D03*
X00775Y-04775D03*
X04775Y-04775D03*
X00800Y-05750D03*
X04800Y-05750D03*
X00789Y-01775D03*
X04789Y-01775D03*
X00775Y-00775D03*
X04775Y-00775D03*
X00800Y-07750D03*
X04800Y-07750D03*
G54D23*
X06450Y-06675D03*
G54D24*
X05575Y-05300D03*
X18675Y-07675D03*
G54D23*
X14800Y-08100D03*
X06550Y-07200D03*
X14400Y-11850D03*
G54D24*
X15875Y-11150D03*
X15325Y-16100D03*
X13300Y-16125D03*
X17750Y-06175D03*
X18525Y-07125D03*
G54D23*
X07100Y-04600D03*
X05425Y-07325D03*
X02275Y-09475D03*
G54D25*
X06450Y-06675D02*
X04850Y-06675D01*
X04850Y-06675D02*
X04775Y-06750D01*
X09100Y-05200D02*
X09100Y-05100D01*
X11550Y-04800D02*
X12250Y-05500D01*
X09400Y-04800D02*
X11550Y-04800D01*
X09100Y-05100D02*
X09400Y-04800D01*
G54D26*
X07343Y-00812D02*
X07138Y-00812D01*
X05325Y-02775D02*
X05325Y-05050D01*
X05325Y-05050D02*
X05575Y-05300D01*
X05325Y-02625D02*
X05325Y-02775D01*
X07138Y-00812D02*
X05325Y-02625D01*
G54D27*
X05250Y-08450D02*
X05300Y-08450D01*
X05300Y-08450D02*
X05450Y-08300D01*
X05450Y-08300D02*
X05900Y-08300D01*
G54D26*
X17500Y-07600D02*
X17500Y-07550D01*
X17350Y-07600D02*
X17500Y-07600D01*
X18700Y-06250D02*
X18950Y-06000D01*
X18325Y-06250D02*
X18700Y-06250D01*
X17875Y-06700D02*
X18325Y-06250D01*
X17875Y-07175D02*
X17875Y-06700D01*
X17500Y-07550D02*
X17875Y-07175D01*
X18950Y-06000D02*
X18950Y-02150D01*
X10343Y-00843D02*
X10343Y-00812D01*
X10808Y-01308D02*
X10343Y-00843D01*
X18108Y-01308D02*
X10808Y-01308D01*
X18950Y-02150D02*
X18108Y-01308D01*
X13800Y-07875D02*
X14075Y-07600D01*
X14075Y-07600D02*
X17350Y-07600D01*
X17350Y-07600D02*
X17375Y-07600D01*
X09025Y-07875D02*
X13800Y-07875D01*
X08550Y-08300D02*
X08600Y-08300D01*
X08600Y-08300D02*
X09025Y-07875D01*
X09025Y-07875D02*
X09025Y-07875D01*
G54D27*
X07900Y-08450D02*
X07950Y-08450D01*
X08100Y-08300D02*
X08550Y-08300D01*
X07950Y-08450D02*
X08100Y-08300D01*
G54D26*
X19300Y-07075D02*
X19300Y-07475D01*
X11413Y-00812D02*
X11975Y-00250D01*
X11975Y-00250D02*
X17600Y-00250D01*
X17600Y-00250D02*
X19300Y-01950D01*
X19300Y-01950D02*
X19300Y-06850D01*
X11343Y-00812D02*
X11413Y-00812D01*
X19300Y-07075D02*
X19300Y-06850D01*
X19100Y-07675D02*
X18675Y-07675D01*
X19300Y-07475D02*
X19100Y-07675D01*
X18675Y-07675D02*
X18775Y-07600D01*
G54D27*
X10550Y-08400D02*
X10750Y-08400D01*
X10850Y-08300D02*
X11200Y-08300D01*
X10750Y-08400D02*
X10850Y-08300D01*
X13200Y-08400D02*
X13400Y-08400D01*
X13500Y-08300D02*
X13850Y-08300D01*
X13400Y-08400D02*
X13500Y-08300D01*
G54D25*
X09600Y-02700D02*
X11050Y-02700D01*
X11050Y-02700D02*
X11250Y-02500D01*
X09100Y-02700D02*
X09100Y-02875D01*
X11575Y-03175D02*
X12250Y-02500D01*
X09400Y-03175D02*
X11575Y-03175D01*
X09100Y-02875D02*
X09400Y-03175D01*
X06600Y-05200D02*
X06600Y-05300D01*
X16350Y-06400D02*
X17250Y-05500D01*
X07700Y-06400D02*
X16350Y-06400D01*
X06600Y-05300D02*
X07700Y-06400D01*
X08600Y-02700D02*
X08600Y-02850D01*
X12325Y-03425D02*
X13250Y-02500D01*
X09175Y-03425D02*
X12325Y-03425D01*
X08600Y-02850D02*
X09175Y-03425D01*
X18475Y-09525D02*
X19075Y-09525D01*
X17825Y-08875D02*
X18475Y-09525D01*
X14800Y-08100D02*
X15750Y-08100D01*
X19325Y-14450D02*
X18775Y-15000D01*
X15750Y-08100D02*
X15875Y-07975D01*
X15875Y-07975D02*
X17400Y-07975D01*
X17400Y-07975D02*
X17825Y-08400D01*
X17825Y-08400D02*
X17825Y-08875D01*
X19325Y-09775D02*
X19325Y-14450D01*
X19075Y-09525D02*
X19325Y-09775D01*
X08600Y-05200D02*
X08600Y-05075D01*
X08600Y-05075D02*
X09100Y-04575D01*
X09100Y-04575D02*
X12325Y-04575D01*
X12325Y-04575D02*
X13250Y-05500D01*
X10250Y-12850D02*
X10250Y-12900D01*
X01750Y-11400D02*
X02450Y-10700D01*
X01750Y-12425D02*
X01750Y-11400D01*
X03000Y-13675D02*
X01750Y-12425D01*
X09475Y-13675D02*
X03000Y-13675D01*
X10250Y-12900D02*
X09475Y-13675D01*
G54D28*
X04050Y-10700D02*
X02450Y-10700D01*
G54D25*
X02450Y-11750D02*
X02450Y-12650D01*
X08627Y-13473D02*
X09250Y-12850D01*
X03273Y-13473D02*
X08627Y-13473D01*
X02450Y-12650D02*
X03273Y-13473D01*
G54D28*
X02450Y-11750D02*
X04050Y-11750D01*
G54D25*
X12950Y-11075D02*
X12950Y-11525D01*
X09000Y-12100D02*
X08250Y-12850D01*
X10300Y-12100D02*
X09000Y-12100D01*
X10800Y-11600D02*
X10300Y-12100D01*
X12875Y-11600D02*
X10800Y-11600D01*
X12950Y-11525D02*
X12875Y-11600D01*
G54D28*
X12950Y-11075D02*
X14550Y-11075D01*
X16750Y-11950D02*
X16750Y-13550D01*
G54D25*
X04800Y-07475D02*
X05300Y-06975D01*
X05300Y-06975D02*
X06275Y-06975D01*
X06275Y-06975D02*
X06500Y-07200D01*
X06500Y-07200D02*
X06550Y-07200D01*
X04800Y-07475D02*
X04800Y-07750D01*
X06600Y-02700D02*
X06600Y-02300D01*
X06600Y-02300D02*
X07350Y-01550D01*
X07350Y-01550D02*
X16300Y-01550D01*
X16300Y-01550D02*
X17250Y-02500D01*
X08100Y-02700D02*
X08100Y-02775D01*
X08100Y-02775D02*
X08975Y-03650D01*
X08975Y-03650D02*
X13100Y-03650D01*
X13100Y-03650D02*
X14250Y-02500D01*
X14250Y-05500D02*
X14250Y-05475D01*
X08100Y-04775D02*
X08100Y-05200D01*
X08525Y-04350D02*
X08100Y-04775D01*
X13125Y-04350D02*
X08525Y-04350D01*
X14250Y-05475D02*
X13125Y-04350D01*
X07600Y-02700D02*
X07600Y-02825D01*
X07600Y-02825D02*
X08650Y-03875D01*
X08650Y-03875D02*
X13875Y-03875D01*
X13875Y-03875D02*
X15250Y-02500D01*
X16250Y-02500D02*
X16250Y-02375D01*
X16250Y-02375D02*
X15750Y-01875D01*
X15750Y-01875D02*
X07450Y-01875D01*
X07450Y-01875D02*
X07100Y-02225D01*
X07100Y-02225D02*
X07100Y-02700D01*
X11250Y-12850D02*
X11250Y-12525D01*
X11925Y-11850D02*
X14400Y-11850D01*
X11250Y-12525D02*
X11925Y-11850D01*
X11250Y-12850D02*
X11250Y-12925D01*
X01500Y-10675D02*
X00825Y-10000D01*
X01500Y-12650D02*
X01500Y-10675D01*
X03150Y-14300D02*
X01500Y-12650D01*
X09875Y-14300D02*
X03150Y-14300D01*
X11250Y-12925D02*
X09875Y-14300D01*
X07600Y-05200D02*
X07600Y-04850D01*
X07600Y-04850D02*
X08373Y-04077D01*
X08373Y-04077D02*
X13827Y-04077D01*
X13827Y-04077D02*
X15250Y-05500D01*
X18775Y-10000D02*
X18775Y-10350D01*
X16547Y-18603D02*
X15275Y-18603D01*
X17475Y-17675D02*
X16547Y-18603D01*
X17475Y-11650D02*
X17475Y-17675D01*
X18775Y-10350D02*
X17475Y-11650D01*
X15275Y-18603D02*
X13828Y-18603D01*
X11250Y-17200D02*
X11250Y-15850D01*
X11600Y-17550D02*
X11250Y-17200D01*
X12775Y-17550D02*
X11600Y-17550D01*
X13828Y-18603D02*
X12775Y-17550D01*
X01102Y-18603D02*
X04410Y-18603D01*
X10375Y-19250D02*
X16575Y-19250D01*
X17725Y-12050D02*
X18775Y-11000D01*
X17725Y-18100D02*
X17725Y-12050D01*
X16575Y-19250D02*
X17725Y-18100D01*
X06150Y-18603D02*
X06153Y-18603D01*
X06153Y-18603D02*
X06800Y-19250D01*
X10250Y-17125D02*
X10250Y-15850D01*
X10900Y-17775D02*
X10250Y-17125D01*
X10900Y-18725D02*
X10900Y-17775D01*
X10375Y-19250D02*
X10900Y-18725D01*
X06800Y-19250D02*
X10375Y-19250D01*
X04410Y-18603D02*
X06150Y-18603D01*
X08250Y-16725D02*
X08250Y-15850D01*
X09343Y-18504D02*
X09343Y-18607D01*
X07875Y-17100D02*
X08250Y-16725D01*
X07875Y-18800D02*
X07875Y-17100D01*
X08075Y-19000D02*
X07875Y-18800D01*
X08950Y-19000D02*
X08075Y-19000D01*
X09343Y-18607D02*
X08950Y-19000D01*
X07900Y-06175D02*
X15575Y-06175D01*
X07100Y-05200D02*
X07100Y-05375D01*
X15575Y-06175D02*
X16250Y-05500D01*
X07100Y-05375D02*
X07900Y-06175D01*
X08343Y-18504D02*
X08343Y-17957D01*
X08343Y-17957D02*
X09250Y-17050D01*
X09250Y-17050D02*
X09250Y-15850D01*
G54D27*
X13325Y-16100D02*
X15325Y-16100D01*
X13300Y-16125D02*
X13325Y-16100D01*
G54D28*
X18377Y-08100D02*
X18600Y-08100D01*
X18525Y-07125D02*
X18150Y-07500D01*
X18150Y-07500D02*
X18150Y-07873D01*
X18150Y-07873D02*
X18377Y-08100D01*
X18250Y-02500D02*
X18250Y-04100D01*
X18250Y-04100D02*
X17750Y-04600D01*
X17750Y-04600D02*
X17750Y-06050D01*
X17750Y-06050D02*
X17750Y-06175D01*
X18775Y-08275D02*
X18775Y-09000D01*
X18600Y-08100D02*
X18775Y-08275D01*
G54D25*
X07100Y-04600D02*
X07100Y-04675D01*
X05750Y-07575D02*
X10830Y-07575D01*
X11343Y-07062D02*
X10830Y-07575D01*
X05675Y-07575D02*
X05750Y-07575D01*
X05425Y-07325D02*
X05675Y-07575D01*
X00800Y-05750D02*
X03900Y-05750D01*
X06531Y-06250D02*
X07343Y-07062D01*
X04400Y-06250D02*
X06531Y-06250D01*
X03900Y-05750D02*
X04400Y-06250D01*
X04650Y-01250D02*
X05625Y-01250D01*
X04125Y-01775D02*
X04650Y-01250D01*
X00789Y-01775D02*
X04125Y-01775D01*
X06725Y-00150D02*
X09150Y-00150D01*
X09150Y-00150D02*
X09343Y-00343D01*
X09343Y-00343D02*
X09343Y-00812D01*
X05625Y-01250D02*
X06725Y-00150D01*
X02300Y-09450D02*
X05250Y-09450D01*
X02275Y-09475D02*
X02300Y-09450D01*
G54D28*
X04850Y-10700D02*
X06450Y-10700D01*
G54D27*
X05250Y-09450D02*
X05250Y-09400D01*
X05250Y-09400D02*
X05550Y-09100D01*
G54D28*
X04850Y-11750D02*
X06450Y-11750D01*
G54D27*
X07900Y-09450D02*
X07900Y-09400D01*
X07900Y-09400D02*
X08200Y-09100D01*
G54D28*
X10550Y-11075D02*
X12150Y-11075D01*
G54D27*
X10550Y-09400D02*
X10850Y-09100D01*
G54D28*
X16750Y-11150D02*
X16750Y-09550D01*
G54D27*
X13200Y-09400D02*
X13500Y-09100D01*
G54D25*
X00150Y-03700D02*
X00150Y-02550D01*
X08343Y-00745D02*
X07950Y-00352D01*
X07950Y-00352D02*
X07098Y-00352D01*
X07098Y-00352D02*
X05125Y-02325D01*
X05125Y-02325D02*
X01650Y-02325D01*
X00775Y-06750D02*
X00150Y-06125D01*
X00150Y-03700D02*
X00150Y-06125D01*
X08343Y-00745D02*
X08343Y-00812D01*
X00375Y-02325D02*
X01650Y-02325D01*
X00150Y-02550D02*
X00375Y-02325D01*
X00775Y-06750D02*
X01025Y-06750D01*
X08343Y-07062D02*
X08062Y-07062D01*
X01275Y-05275D02*
X00775Y-04775D01*
X04975Y-05275D02*
X01275Y-05275D01*
X05525Y-05825D02*
X04975Y-05275D01*
X06550Y-05825D02*
X05525Y-05825D01*
X07225Y-06500D02*
X06550Y-05825D01*
X07500Y-06500D02*
X07225Y-06500D01*
X08062Y-07062D02*
X07500Y-06500D01*
G54D28*
X12250Y-16725D02*
X11975Y-16725D01*
X11750Y-13725D02*
X11775Y-13700D01*
X11750Y-16500D02*
X11750Y-13725D01*
X11975Y-16725D02*
X11750Y-16500D01*
X12250Y-16725D02*
X15169Y-16725D01*
X15169Y-16725D02*
X15275Y-16831D01*
G54D25*
X04410Y-16831D02*
X05056Y-16831D01*
X05056Y-16831D02*
X05400Y-17175D01*
G54D27*
X11675Y-13700D02*
X11775Y-13700D01*
X10425Y-14950D02*
X11675Y-13700D01*
X05775Y-14950D02*
X10425Y-14950D01*
X05400Y-15325D02*
X05775Y-14950D01*
X05400Y-17175D02*
X05400Y-15325D01*
X11775Y-13700D02*
X11875Y-13700D01*
X11875Y-13700D02*
X12250Y-13325D01*
X06729Y-18504D02*
X05400Y-17175D01*
X07343Y-18504D02*
X06729Y-18504D01*
G54D25*
X01102Y-16831D02*
X04410Y-16831D01*
G54D27*
X00825Y-09000D02*
X01025Y-09000D01*
X05650Y-10050D02*
X06250Y-09450D01*
X02075Y-10050D02*
X05650Y-10050D01*
X01025Y-09000D02*
X02075Y-10050D01*
X08900Y-09450D02*
X08900Y-09900D01*
X08900Y-09900D02*
X08625Y-10175D01*
X08625Y-10175D02*
X06975Y-10175D01*
X06975Y-10175D02*
X06250Y-09450D01*
X15050Y-13400D02*
X15050Y-11500D01*
X15225Y-11325D02*
X15225Y-09400D01*
X15050Y-11500D02*
X15225Y-11325D01*
X11550Y-09400D02*
X11550Y-09550D01*
X09800Y-10350D02*
X08900Y-09450D01*
X10750Y-10350D02*
X09800Y-10350D01*
X11550Y-09550D02*
X10750Y-10350D01*
X14200Y-09400D02*
X14200Y-09675D01*
X12325Y-10175D02*
X11550Y-09400D01*
X13700Y-10175D02*
X12325Y-10175D01*
X14200Y-09675D02*
X13700Y-10175D01*
X16200Y-08500D02*
X16200Y-08925D01*
X16200Y-08925D02*
X15725Y-09400D01*
X15725Y-09400D02*
X15225Y-09400D01*
X15225Y-09400D02*
X14200Y-09400D01*
G54D29*
X09600Y-05200D02*
X09600Y-05350D01*
X09600Y-05350D02*
X09750Y-05500D01*
X09750Y-05500D02*
X11250Y-05500D01*
G54D27*
X14200Y-09400D02*
X14200Y-09100D01*
X11550Y-09400D02*
X11550Y-09100D01*
X08900Y-09450D02*
X08900Y-09100D01*
X06250Y-09450D02*
X06250Y-09100D01*
X12250Y-12850D02*
X12250Y-13325D01*
X12900Y-13975D02*
X13800Y-13975D01*
X12250Y-13325D02*
X12900Y-13975D01*
X13800Y-13975D02*
X13850Y-13925D01*
X13850Y-13925D02*
X13850Y-13650D01*
X13850Y-13650D02*
X14100Y-13400D01*
X14100Y-13400D02*
X15050Y-13400D01*
G54D10*
G36*
X08193Y-03842D02*
X08161Y-03865D01*
X07388Y-04638D01*
X07323Y-04735D01*
X07319Y-04754D01*
X07250Y-04726D01*
X07151Y-04726D01*
X06951Y-04726D01*
X06859Y-04764D01*
X06850Y-04773D01*
X06841Y-04764D01*
X06750Y-04726D01*
X06651Y-04726D01*
X06451Y-04726D01*
X06359Y-04764D01*
X06350Y-04773D01*
X06341Y-04764D01*
X06250Y-04726D01*
X06151Y-04726D01*
X05951Y-04726D01*
X05859Y-04764D01*
X05789Y-04834D01*
X05774Y-04868D01*
X05670Y-04825D01*
X05665Y-04825D01*
X05665Y-02915D01*
X05750Y-02829D01*
X05751Y-02876D01*
X05751Y-02975D01*
X05789Y-03066D01*
X05859Y-03136D01*
X05951Y-03174D01*
X05988Y-03175D01*
X06050Y-03113D01*
X06050Y-02800D01*
X06050Y-02750D01*
X06050Y-02650D01*
X06150Y-02650D01*
X06150Y-02750D01*
X06150Y-02800D01*
X06150Y-03113D01*
X06212Y-03175D01*
X06249Y-03174D01*
X06341Y-03136D01*
X06350Y-03127D01*
X06359Y-03136D01*
X06450Y-03174D01*
X06549Y-03174D01*
X06749Y-03174D01*
X06841Y-03136D01*
X06850Y-03127D01*
X06859Y-03136D01*
X06950Y-03174D01*
X07049Y-03174D01*
X07249Y-03174D01*
X07341Y-03136D01*
X07350Y-03127D01*
X07359Y-03136D01*
X07450Y-03174D01*
X07525Y-03174D01*
X08193Y-03842D01*
X08193Y-03842D01*
G37*
G54D25*
X08193Y-03842D02*
X08161Y-03865D01*
X07388Y-04638D01*
X07323Y-04735D01*
X07319Y-04754D01*
X07250Y-04726D01*
X07151Y-04726D01*
X06951Y-04726D01*
X06859Y-04764D01*
X06850Y-04773D01*
X06841Y-04764D01*
X06750Y-04726D01*
X06651Y-04726D01*
X06451Y-04726D01*
X06359Y-04764D01*
X06350Y-04773D01*
X06341Y-04764D01*
X06250Y-04726D01*
X06151Y-04726D01*
X05951Y-04726D01*
X05859Y-04764D01*
X05789Y-04834D01*
X05774Y-04868D01*
X05670Y-04825D01*
X05665Y-04825D01*
X05665Y-02915D01*
X05750Y-02829D01*
X05751Y-02876D01*
X05751Y-02975D01*
X05789Y-03066D01*
X05859Y-03136D01*
X05951Y-03174D01*
X05988Y-03175D01*
X06050Y-03113D01*
X06050Y-02800D01*
X06050Y-02750D01*
X06050Y-02650D01*
X06150Y-02650D01*
X06150Y-02750D01*
X06150Y-02800D01*
X06150Y-03113D01*
X06212Y-03175D01*
X06249Y-03174D01*
X06341Y-03136D01*
X06350Y-03127D01*
X06359Y-03136D01*
X06450Y-03174D01*
X06549Y-03174D01*
X06749Y-03174D01*
X06841Y-03136D01*
X06850Y-03127D01*
X06859Y-03136D01*
X06950Y-03174D01*
X07049Y-03174D01*
X07249Y-03174D01*
X07341Y-03136D01*
X07350Y-03127D01*
X07359Y-03136D01*
X07450Y-03174D01*
X07525Y-03174D01*
X08193Y-03842D01*
G54D10*
G36*
X14720Y-18950D02*
X12862Y-18950D01*
X12862Y-18578D01*
X12851Y-18374D01*
X12795Y-18237D01*
X12704Y-18214D01*
X12633Y-18285D01*
X12633Y-18143D01*
X12610Y-18052D01*
X12417Y-17985D01*
X12213Y-17996D01*
X12076Y-18052D01*
X12053Y-18143D01*
X12343Y-18433D01*
X12633Y-18143D01*
X12633Y-18285D01*
X12414Y-18504D01*
X12704Y-18794D01*
X12795Y-18771D01*
X12862Y-18578D01*
X12862Y-18950D01*
X12611Y-18950D01*
X12633Y-18865D01*
X12343Y-18575D01*
X12053Y-18865D01*
X12074Y-18950D01*
X11637Y-18950D01*
X11640Y-18949D01*
X11788Y-18802D01*
X11846Y-18661D01*
X11891Y-18771D01*
X11982Y-18794D01*
X12272Y-18504D01*
X11982Y-18214D01*
X11891Y-18237D01*
X11849Y-18355D01*
X11788Y-18207D01*
X11641Y-18059D01*
X11448Y-17979D01*
X11239Y-17979D01*
X11200Y-17995D01*
X11200Y-17775D01*
X11177Y-17660D01*
X11112Y-17563D01*
X10550Y-17001D01*
X10550Y-16472D01*
X10561Y-16468D01*
X10715Y-16314D01*
X10750Y-16229D01*
X10785Y-16314D01*
X10939Y-16468D01*
X10950Y-16472D01*
X10950Y-17200D01*
X10973Y-17315D01*
X11038Y-17412D01*
X11387Y-17761D01*
X11388Y-17762D01*
X11485Y-17827D01*
X11599Y-17849D01*
X11600Y-17850D01*
X12651Y-17850D01*
X13616Y-18815D01*
X13713Y-18880D01*
X13828Y-18903D01*
X14711Y-18903D01*
X14711Y-18927D01*
X14720Y-18950D01*
X14720Y-18950D01*
G37*
G54D25*
X14720Y-18950D02*
X12862Y-18950D01*
X12862Y-18578D01*
X12851Y-18374D01*
X12795Y-18237D01*
X12704Y-18214D01*
X12633Y-18285D01*
X12633Y-18143D01*
X12610Y-18052D01*
X12417Y-17985D01*
X12213Y-17996D01*
X12076Y-18052D01*
X12053Y-18143D01*
X12343Y-18433D01*
X12633Y-18143D01*
X12633Y-18285D01*
X12414Y-18504D01*
X12704Y-18794D01*
X12795Y-18771D01*
X12862Y-18578D01*
X12862Y-18950D01*
X12611Y-18950D01*
X12633Y-18865D01*
X12343Y-18575D01*
X12053Y-18865D01*
X12074Y-18950D01*
X11637Y-18950D01*
X11640Y-18949D01*
X11788Y-18802D01*
X11846Y-18661D01*
X11891Y-18771D01*
X11982Y-18794D01*
X12272Y-18504D01*
X11982Y-18214D01*
X11891Y-18237D01*
X11849Y-18355D01*
X11788Y-18207D01*
X11641Y-18059D01*
X11448Y-17979D01*
X11239Y-17979D01*
X11200Y-17995D01*
X11200Y-17775D01*
X11177Y-17660D01*
X11112Y-17563D01*
X10550Y-17001D01*
X10550Y-16472D01*
X10561Y-16468D01*
X10715Y-16314D01*
X10750Y-16229D01*
X10785Y-16314D01*
X10939Y-16468D01*
X10950Y-16472D01*
X10950Y-17200D01*
X10973Y-17315D01*
X11038Y-17412D01*
X11387Y-17761D01*
X11388Y-17762D01*
X11485Y-17827D01*
X11599Y-17849D01*
X11600Y-17850D01*
X12651Y-17850D01*
X13616Y-18815D01*
X13713Y-18880D01*
X13828Y-18903D01*
X14711Y-18903D01*
X14711Y-18927D01*
X14720Y-18950D01*
G54D10*
G36*
X17175Y-17551D02*
X16423Y-18303D01*
X16050Y-18303D01*
X16050Y-15312D01*
X16050Y-15088D01*
X16049Y-14876D01*
X16011Y-14784D01*
X15941Y-14714D01*
X15850Y-14676D01*
X15751Y-14676D01*
X15162Y-14675D01*
X15100Y-14737D01*
X15100Y-15150D01*
X15988Y-15150D01*
X16050Y-15088D01*
X16050Y-15312D01*
X15988Y-15250D01*
X15100Y-15250D01*
X15100Y-15663D01*
X15162Y-15725D01*
X15751Y-15724D01*
X15850Y-15724D01*
X15941Y-15686D01*
X16011Y-15616D01*
X16049Y-15524D01*
X16050Y-15312D01*
X16050Y-18303D01*
X15839Y-18303D01*
X15839Y-18279D01*
X15801Y-18187D01*
X15731Y-18117D01*
X15640Y-18079D01*
X15541Y-18079D01*
X14911Y-18079D01*
X14819Y-18117D01*
X14749Y-18187D01*
X14711Y-18278D01*
X14711Y-18303D01*
X13952Y-18303D01*
X12987Y-17338D01*
X12890Y-17273D01*
X12775Y-17250D01*
X12416Y-17250D01*
X12561Y-17190D01*
X12701Y-17050D01*
X14711Y-17050D01*
X14711Y-17155D01*
X14749Y-17247D01*
X14819Y-17317D01*
X14910Y-17355D01*
X15009Y-17355D01*
X15639Y-17355D01*
X15731Y-17317D01*
X15801Y-17247D01*
X15839Y-17156D01*
X15839Y-17057D01*
X15839Y-16507D01*
X15801Y-16415D01*
X15731Y-16345D01*
X15640Y-16307D01*
X15541Y-16307D01*
X15000Y-16307D01*
X15000Y-15663D01*
X15000Y-15250D01*
X14112Y-15250D01*
X14050Y-15312D01*
X14051Y-15524D01*
X14089Y-15616D01*
X14159Y-15686D01*
X14250Y-15724D01*
X14349Y-15724D01*
X14938Y-15725D01*
X15000Y-15663D01*
X15000Y-16307D01*
X14911Y-16307D01*
X14819Y-16345D01*
X14764Y-16400D01*
X13750Y-16400D01*
X13750Y-15088D01*
X13750Y-14775D01*
X13337Y-14775D01*
X13275Y-14837D01*
X13276Y-14949D01*
X13314Y-15041D01*
X13384Y-15111D01*
X13475Y-15149D01*
X13574Y-15149D01*
X13688Y-15150D01*
X13750Y-15088D01*
X13750Y-16400D01*
X12701Y-16400D01*
X12660Y-16359D01*
X12760Y-16223D01*
X12810Y-16010D01*
X12810Y-15900D01*
X12810Y-15800D01*
X12810Y-15690D01*
X12760Y-15477D01*
X12632Y-15300D01*
X12446Y-15185D01*
X12387Y-15168D01*
X12300Y-15215D01*
X12300Y-15800D01*
X12810Y-15800D01*
X12810Y-15900D01*
X12350Y-15900D01*
X12300Y-15900D01*
X12200Y-15900D01*
X12200Y-15800D01*
X12200Y-15750D01*
X12200Y-15215D01*
X12113Y-15168D01*
X12075Y-15178D01*
X12075Y-14038D01*
X12158Y-13983D01*
X12250Y-13891D01*
X12617Y-14258D01*
X12746Y-14345D01*
X12747Y-14345D01*
X12900Y-14375D01*
X13348Y-14375D01*
X13314Y-14409D01*
X13276Y-14501D01*
X13275Y-14613D01*
X13337Y-14675D01*
X13700Y-14675D01*
X13750Y-14675D01*
X13850Y-14675D01*
X13850Y-14775D01*
X13850Y-14825D01*
X13850Y-15088D01*
X13912Y-15150D01*
X14026Y-15149D01*
X14111Y-15149D01*
X14112Y-15150D01*
X15000Y-15150D01*
X15000Y-14737D01*
X14938Y-14675D01*
X14349Y-14676D01*
X14325Y-14676D01*
X14325Y-14625D01*
X14313Y-14625D01*
X14325Y-14613D01*
X14324Y-14501D01*
X14286Y-14409D01*
X14227Y-14350D01*
X14286Y-14291D01*
X14324Y-14200D01*
X14324Y-14101D01*
X14324Y-13924D01*
X14349Y-13924D01*
X15849Y-13924D01*
X15941Y-13886D01*
X16011Y-13816D01*
X16049Y-13725D01*
X16049Y-13626D01*
X16049Y-13076D01*
X16011Y-12984D01*
X15941Y-12914D01*
X15850Y-12876D01*
X15751Y-12876D01*
X15450Y-12876D01*
X15450Y-11665D01*
X15505Y-11610D01*
X15507Y-11608D01*
X15508Y-11608D01*
X15594Y-11479D01*
X15595Y-11478D01*
X15625Y-11325D01*
X15625Y-09800D01*
X15725Y-09800D01*
X15878Y-09770D01*
X16008Y-09683D01*
X16201Y-09489D01*
X16201Y-09659D01*
X16285Y-09861D01*
X16425Y-10001D01*
X16425Y-10701D01*
X16401Y-10701D01*
X16309Y-10739D01*
X16239Y-10809D01*
X16201Y-10900D01*
X16201Y-10999D01*
X16201Y-11399D01*
X16239Y-11491D01*
X16298Y-11550D01*
X16239Y-11609D01*
X16201Y-11700D01*
X16201Y-11799D01*
X16201Y-12199D01*
X16239Y-12291D01*
X16309Y-12361D01*
X16400Y-12399D01*
X16425Y-12399D01*
X16425Y-13099D01*
X16285Y-13239D01*
X16201Y-13441D01*
X16201Y-13659D01*
X16285Y-13861D01*
X16439Y-14015D01*
X16641Y-14099D01*
X16859Y-14099D01*
X17061Y-14015D01*
X17175Y-13901D01*
X17175Y-17551D01*
X17175Y-17551D01*
G37*
G54D25*
X17175Y-17551D02*
X16423Y-18303D01*
X16050Y-18303D01*
X16050Y-15312D01*
X16050Y-15088D01*
X16049Y-14876D01*
X16011Y-14784D01*
X15941Y-14714D01*
X15850Y-14676D01*
X15751Y-14676D01*
X15162Y-14675D01*
X15100Y-14737D01*
X15100Y-15150D01*
X15988Y-15150D01*
X16050Y-15088D01*
X16050Y-15312D01*
X15988Y-15250D01*
X15100Y-15250D01*
X15100Y-15663D01*
X15162Y-15725D01*
X15751Y-15724D01*
X15850Y-15724D01*
X15941Y-15686D01*
X16011Y-15616D01*
X16049Y-15524D01*
X16050Y-15312D01*
X16050Y-18303D01*
X15839Y-18303D01*
X15839Y-18279D01*
X15801Y-18187D01*
X15731Y-18117D01*
X15640Y-18079D01*
X15541Y-18079D01*
X14911Y-18079D01*
X14819Y-18117D01*
X14749Y-18187D01*
X14711Y-18278D01*
X14711Y-18303D01*
X13952Y-18303D01*
X12987Y-17338D01*
X12890Y-17273D01*
X12775Y-17250D01*
X12416Y-17250D01*
X12561Y-17190D01*
X12701Y-17050D01*
X14711Y-17050D01*
X14711Y-17155D01*
X14749Y-17247D01*
X14819Y-17317D01*
X14910Y-17355D01*
X15009Y-17355D01*
X15639Y-17355D01*
X15731Y-17317D01*
X15801Y-17247D01*
X15839Y-17156D01*
X15839Y-17057D01*
X15839Y-16507D01*
X15801Y-16415D01*
X15731Y-16345D01*
X15640Y-16307D01*
X15541Y-16307D01*
X15000Y-16307D01*
X15000Y-15663D01*
X15000Y-15250D01*
X14112Y-15250D01*
X14050Y-15312D01*
X14051Y-15524D01*
X14089Y-15616D01*
X14159Y-15686D01*
X14250Y-15724D01*
X14349Y-15724D01*
X14938Y-15725D01*
X15000Y-15663D01*
X15000Y-16307D01*
X14911Y-16307D01*
X14819Y-16345D01*
X14764Y-16400D01*
X13750Y-16400D01*
X13750Y-15088D01*
X13750Y-14775D01*
X13337Y-14775D01*
X13275Y-14837D01*
X13276Y-14949D01*
X13314Y-15041D01*
X13384Y-15111D01*
X13475Y-15149D01*
X13574Y-15149D01*
X13688Y-15150D01*
X13750Y-15088D01*
X13750Y-16400D01*
X12701Y-16400D01*
X12660Y-16359D01*
X12760Y-16223D01*
X12810Y-16010D01*
X12810Y-15900D01*
X12810Y-15800D01*
X12810Y-15690D01*
X12760Y-15477D01*
X12632Y-15300D01*
X12446Y-15185D01*
X12387Y-15168D01*
X12300Y-15215D01*
X12300Y-15800D01*
X12810Y-15800D01*
X12810Y-15900D01*
X12350Y-15900D01*
X12300Y-15900D01*
X12200Y-15900D01*
X12200Y-15800D01*
X12200Y-15750D01*
X12200Y-15215D01*
X12113Y-15168D01*
X12075Y-15178D01*
X12075Y-14038D01*
X12158Y-13983D01*
X12250Y-13891D01*
X12617Y-14258D01*
X12746Y-14345D01*
X12747Y-14345D01*
X12900Y-14375D01*
X13348Y-14375D01*
X13314Y-14409D01*
X13276Y-14501D01*
X13275Y-14613D01*
X13337Y-14675D01*
X13700Y-14675D01*
X13750Y-14675D01*
X13850Y-14675D01*
X13850Y-14775D01*
X13850Y-14825D01*
X13850Y-15088D01*
X13912Y-15150D01*
X14026Y-15149D01*
X14111Y-15149D01*
X14112Y-15150D01*
X15000Y-15150D01*
X15000Y-14737D01*
X14938Y-14675D01*
X14349Y-14676D01*
X14325Y-14676D01*
X14325Y-14625D01*
X14313Y-14625D01*
X14325Y-14613D01*
X14324Y-14501D01*
X14286Y-14409D01*
X14227Y-14350D01*
X14286Y-14291D01*
X14324Y-14200D01*
X14324Y-14101D01*
X14324Y-13924D01*
X14349Y-13924D01*
X15849Y-13924D01*
X15941Y-13886D01*
X16011Y-13816D01*
X16049Y-13725D01*
X16049Y-13626D01*
X16049Y-13076D01*
X16011Y-12984D01*
X15941Y-12914D01*
X15850Y-12876D01*
X15751Y-12876D01*
X15450Y-12876D01*
X15450Y-11665D01*
X15505Y-11610D01*
X15507Y-11608D01*
X15508Y-11608D01*
X15594Y-11479D01*
X15595Y-11478D01*
X15625Y-11325D01*
X15625Y-09800D01*
X15725Y-09800D01*
X15878Y-09770D01*
X16008Y-09683D01*
X16201Y-09489D01*
X16201Y-09659D01*
X16285Y-09861D01*
X16425Y-10001D01*
X16425Y-10701D01*
X16401Y-10701D01*
X16309Y-10739D01*
X16239Y-10809D01*
X16201Y-10900D01*
X16201Y-10999D01*
X16201Y-11399D01*
X16239Y-11491D01*
X16298Y-11550D01*
X16239Y-11609D01*
X16201Y-11700D01*
X16201Y-11799D01*
X16201Y-12199D01*
X16239Y-12291D01*
X16309Y-12361D01*
X16400Y-12399D01*
X16425Y-12399D01*
X16425Y-13099D01*
X16285Y-13239D01*
X16201Y-13441D01*
X16201Y-13659D01*
X16285Y-13861D01*
X16439Y-14015D01*
X16641Y-14099D01*
X16859Y-14099D01*
X17061Y-14015D01*
X17175Y-13901D01*
X17175Y-17551D01*
G54D10*
G36*
X17965Y-06128D02*
X17635Y-06460D01*
X17575Y-06549D01*
X17536Y-06510D01*
X17334Y-06426D01*
X17116Y-06426D01*
X16914Y-06510D01*
X16760Y-06664D01*
X16676Y-06866D01*
X16676Y-07084D01*
X16749Y-07260D01*
X14075Y-07260D01*
X13945Y-07286D01*
X13908Y-07310D01*
X13834Y-07360D01*
X13659Y-07535D01*
X12634Y-07535D01*
X12654Y-07527D01*
X12808Y-07373D01*
X12819Y-07345D01*
X12914Y-07440D01*
X13116Y-07524D01*
X13334Y-07524D01*
X13536Y-07440D01*
X13690Y-07286D01*
X13774Y-07084D01*
X13774Y-06866D01*
X13704Y-06700D01*
X16350Y-06700D01*
X16465Y-06677D01*
X16562Y-06612D01*
X17021Y-06152D01*
X17141Y-06202D01*
X17359Y-06202D01*
X17561Y-06118D01*
X17715Y-05964D01*
X17750Y-05879D01*
X17785Y-05964D01*
X17939Y-06118D01*
X17965Y-06128D01*
X17965Y-06128D01*
G37*
G54D25*
X17965Y-06128D02*
X17635Y-06460D01*
X17575Y-06549D01*
X17536Y-06510D01*
X17334Y-06426D01*
X17116Y-06426D01*
X16914Y-06510D01*
X16760Y-06664D01*
X16676Y-06866D01*
X16676Y-07084D01*
X16749Y-07260D01*
X14075Y-07260D01*
X13945Y-07286D01*
X13908Y-07310D01*
X13834Y-07360D01*
X13659Y-07535D01*
X12634Y-07535D01*
X12654Y-07527D01*
X12808Y-07373D01*
X12819Y-07345D01*
X12914Y-07440D01*
X13116Y-07524D01*
X13334Y-07524D01*
X13536Y-07440D01*
X13690Y-07286D01*
X13774Y-07084D01*
X13774Y-06866D01*
X13704Y-06700D01*
X16350Y-06700D01*
X16465Y-06677D01*
X16562Y-06612D01*
X17021Y-06152D01*
X17141Y-06202D01*
X17359Y-06202D01*
X17561Y-06118D01*
X17715Y-05964D01*
X17750Y-05879D01*
X17785Y-05964D01*
X17939Y-06118D01*
X17965Y-06128D01*
G54D10*
G36*
X18366Y-10334D02*
X17490Y-11209D01*
X17299Y-11400D01*
X17299Y-11301D01*
X17299Y-10901D01*
X17261Y-10809D01*
X17191Y-10739D01*
X17100Y-10701D01*
X17075Y-10701D01*
X17075Y-10001D01*
X17215Y-09861D01*
X17299Y-09659D01*
X17299Y-09441D01*
X17215Y-09239D01*
X17061Y-09085D01*
X16859Y-09001D01*
X16641Y-09001D01*
X16580Y-09026D01*
X16585Y-08998D01*
X16616Y-08986D01*
X16686Y-08916D01*
X16724Y-08825D01*
X16724Y-08726D01*
X16724Y-08708D01*
X16748Y-08767D01*
X16839Y-08790D01*
X17094Y-08535D01*
X17129Y-08500D01*
X17200Y-08429D01*
X17271Y-08500D01*
X17200Y-08571D01*
X17165Y-08606D01*
X16910Y-08861D01*
X16933Y-08952D01*
X17126Y-09019D01*
X17330Y-09008D01*
X17467Y-08952D01*
X17475Y-08916D01*
X17490Y-08931D01*
X17507Y-08948D01*
X17534Y-08920D01*
X17548Y-08990D01*
X17613Y-09087D01*
X18263Y-09737D01*
X18304Y-09764D01*
X18250Y-09895D01*
X18250Y-10104D01*
X18330Y-10297D01*
X18366Y-10334D01*
X18366Y-10334D01*
G37*
G54D25*
X18366Y-10334D02*
X17490Y-11209D01*
X17299Y-11400D01*
X17299Y-11301D01*
X17299Y-10901D01*
X17261Y-10809D01*
X17191Y-10739D01*
X17100Y-10701D01*
X17075Y-10701D01*
X17075Y-10001D01*
X17215Y-09861D01*
X17299Y-09659D01*
X17299Y-09441D01*
X17215Y-09239D01*
X17061Y-09085D01*
X16859Y-09001D01*
X16641Y-09001D01*
X16580Y-09026D01*
X16585Y-08998D01*
X16616Y-08986D01*
X16686Y-08916D01*
X16724Y-08825D01*
X16724Y-08726D01*
X16724Y-08708D01*
X16748Y-08767D01*
X16839Y-08790D01*
X17094Y-08535D01*
X17129Y-08500D01*
X17200Y-08429D01*
X17271Y-08500D01*
X17200Y-08571D01*
X17165Y-08606D01*
X16910Y-08861D01*
X16933Y-08952D01*
X17126Y-09019D01*
X17330Y-09008D01*
X17467Y-08952D01*
X17475Y-08916D01*
X17490Y-08931D01*
X17507Y-08948D01*
X17534Y-08920D01*
X17548Y-08990D01*
X17613Y-09087D01*
X18263Y-09737D01*
X18304Y-09764D01*
X18250Y-09895D01*
X18250Y-10104D01*
X18330Y-10297D01*
X18366Y-10334D01*
G54D10*
G36*
X18610Y-04931D02*
X18561Y-04882D01*
X18359Y-04798D01*
X18141Y-04798D01*
X17939Y-04882D01*
X17785Y-05036D01*
X17750Y-05120D01*
X17715Y-05036D01*
X17561Y-04882D01*
X17359Y-04798D01*
X17141Y-04798D01*
X16939Y-04882D01*
X16785Y-05036D01*
X16750Y-05120D01*
X16715Y-05036D01*
X16561Y-04882D01*
X16359Y-04798D01*
X16141Y-04798D01*
X15939Y-04882D01*
X15785Y-05036D01*
X15750Y-05120D01*
X15715Y-05036D01*
X15561Y-04882D01*
X15359Y-04798D01*
X15141Y-04798D01*
X15021Y-04847D01*
X14174Y-04000D01*
X15022Y-03152D01*
X15141Y-03202D01*
X15359Y-03202D01*
X15561Y-03118D01*
X15715Y-02964D01*
X15750Y-02879D01*
X15785Y-02964D01*
X15939Y-03118D01*
X16141Y-03202D01*
X16359Y-03202D01*
X16561Y-03118D01*
X16715Y-02964D01*
X16750Y-02879D01*
X16785Y-02964D01*
X16939Y-03118D01*
X17141Y-03202D01*
X17359Y-03202D01*
X17561Y-03118D01*
X17715Y-02964D01*
X17748Y-02884D01*
X17868Y-03050D01*
X18054Y-03165D01*
X18113Y-03182D01*
X18200Y-03135D01*
X18200Y-02600D01*
X18200Y-02550D01*
X18200Y-02450D01*
X18300Y-02450D01*
X18300Y-02550D01*
X18300Y-02600D01*
X18300Y-03135D01*
X18387Y-03182D01*
X18446Y-03165D01*
X18610Y-03063D01*
X18610Y-04931D01*
X18610Y-04931D01*
G37*
G54D25*
X18610Y-04931D02*
X18561Y-04882D01*
X18359Y-04798D01*
X18141Y-04798D01*
X17939Y-04882D01*
X17785Y-05036D01*
X17750Y-05120D01*
X17715Y-05036D01*
X17561Y-04882D01*
X17359Y-04798D01*
X17141Y-04798D01*
X16939Y-04882D01*
X16785Y-05036D01*
X16750Y-05120D01*
X16715Y-05036D01*
X16561Y-04882D01*
X16359Y-04798D01*
X16141Y-04798D01*
X15939Y-04882D01*
X15785Y-05036D01*
X15750Y-05120D01*
X15715Y-05036D01*
X15561Y-04882D01*
X15359Y-04798D01*
X15141Y-04798D01*
X15021Y-04847D01*
X14174Y-04000D01*
X15022Y-03152D01*
X15141Y-03202D01*
X15359Y-03202D01*
X15561Y-03118D01*
X15715Y-02964D01*
X15750Y-02879D01*
X15785Y-02964D01*
X15939Y-03118D01*
X16141Y-03202D01*
X16359Y-03202D01*
X16561Y-03118D01*
X16715Y-02964D01*
X16750Y-02879D01*
X16785Y-02964D01*
X16939Y-03118D01*
X17141Y-03202D01*
X17359Y-03202D01*
X17561Y-03118D01*
X17715Y-02964D01*
X17748Y-02884D01*
X17868Y-03050D01*
X18054Y-03165D01*
X18113Y-03182D01*
X18200Y-03135D01*
X18200Y-02600D01*
X18200Y-02550D01*
X18200Y-02450D01*
X18300Y-02450D01*
X18300Y-02550D01*
X18300Y-02600D01*
X18300Y-03135D01*
X18387Y-03182D01*
X18446Y-03165D01*
X18610Y-03063D01*
X18610Y-04931D01*
G54D10*
G36*
X19325Y-09350D02*
X19299Y-09324D01*
X19300Y-09112D01*
X19300Y-08888D01*
X19299Y-08676D01*
X19261Y-08584D01*
X19191Y-08514D01*
X19100Y-08476D01*
X19001Y-08476D01*
X18887Y-08475D01*
X18825Y-08537D01*
X18825Y-08950D01*
X19238Y-08950D01*
X19300Y-08888D01*
X19300Y-09112D01*
X19238Y-09050D01*
X18875Y-09050D01*
X18825Y-09050D01*
X18725Y-09050D01*
X18725Y-08950D01*
X18725Y-08900D01*
X18725Y-08537D01*
X18663Y-08475D01*
X18549Y-08476D01*
X18450Y-08476D01*
X18359Y-08514D01*
X18289Y-08584D01*
X18251Y-08676D01*
X18250Y-08876D01*
X18125Y-08751D01*
X18125Y-08400D01*
X18102Y-08285D01*
X18037Y-08188D01*
X17709Y-07860D01*
X17740Y-07840D01*
X17814Y-07730D01*
X17817Y-07712D01*
X18115Y-07416D01*
X18115Y-07415D01*
X18189Y-07305D01*
X18214Y-07175D01*
X18215Y-07175D01*
X18215Y-06840D01*
X18465Y-06590D01*
X18700Y-06590D01*
X18700Y-06589D01*
X18830Y-06564D01*
X18940Y-06490D01*
X18960Y-06470D01*
X18960Y-06850D01*
X18960Y-07075D01*
X18960Y-07288D01*
X18944Y-07273D01*
X18770Y-07200D01*
X18581Y-07200D01*
X18406Y-07272D01*
X18273Y-07406D01*
X18200Y-07580D01*
X18200Y-07769D01*
X18272Y-07944D01*
X18406Y-08077D01*
X18580Y-08150D01*
X18769Y-08150D01*
X18944Y-08078D01*
X19006Y-08015D01*
X19100Y-08015D01*
X19100Y-08014D01*
X19230Y-07989D01*
X19325Y-07925D01*
X19325Y-09350D01*
X19325Y-09350D01*
G37*
G54D25*
X19325Y-09350D02*
X19299Y-09324D01*
X19300Y-09112D01*
X19300Y-08888D01*
X19299Y-08676D01*
X19261Y-08584D01*
X19191Y-08514D01*
X19100Y-08476D01*
X19001Y-08476D01*
X18887Y-08475D01*
X18825Y-08537D01*
X18825Y-08950D01*
X19238Y-08950D01*
X19300Y-08888D01*
X19300Y-09112D01*
X19238Y-09050D01*
X18875Y-09050D01*
X18825Y-09050D01*
X18725Y-09050D01*
X18725Y-08950D01*
X18725Y-08900D01*
X18725Y-08537D01*
X18663Y-08475D01*
X18549Y-08476D01*
X18450Y-08476D01*
X18359Y-08514D01*
X18289Y-08584D01*
X18251Y-08676D01*
X18250Y-08876D01*
X18125Y-08751D01*
X18125Y-08400D01*
X18102Y-08285D01*
X18037Y-08188D01*
X17709Y-07860D01*
X17740Y-07840D01*
X17814Y-07730D01*
X17817Y-07712D01*
X18115Y-07416D01*
X18115Y-07415D01*
X18189Y-07305D01*
X18214Y-07175D01*
X18215Y-07175D01*
X18215Y-06840D01*
X18465Y-06590D01*
X18700Y-06590D01*
X18700Y-06589D01*
X18830Y-06564D01*
X18940Y-06490D01*
X18960Y-06470D01*
X18960Y-06850D01*
X18960Y-07075D01*
X18960Y-07288D01*
X18944Y-07273D01*
X18770Y-07200D01*
X18581Y-07200D01*
X18406Y-07272D01*
X18273Y-07406D01*
X18200Y-07580D01*
X18200Y-07769D01*
X18272Y-07944D01*
X18406Y-08077D01*
X18580Y-08150D01*
X18769Y-08150D01*
X18944Y-08078D01*
X19006Y-08015D01*
X19100Y-08015D01*
X19100Y-08014D01*
X19230Y-07989D01*
X19325Y-07925D01*
X19325Y-09350D01*
M02*
