G04 (created by PCBNEW-RS274X (2011-05-25)-stable) date Sun 14 Oct 2012 04:31:26 PM CDT*
G01*
G70*
G90*
%MOIN*%
G04 Gerber Fmt 3.4, Leading zero omitted, Abs format*
%FSLAX34Y34*%
G04 APERTURE LIST*
%ADD10C,0.006000*%
%ADD11R,0.075000X0.075000*%
%ADD12C,0.075000*%
%ADD13R,0.082000X0.110000*%
%ADD14O,0.082000X0.110000*%
%ADD15C,0.080000*%
%ADD16R,0.060000X0.080000*%
%ADD17R,0.037000X0.075000*%
%ADD18R,0.075000X0.055000*%
G04 APERTURE END LIST*
G54D10*
G54D11*
X16200Y-08500D03*
G54D12*
X17200Y-08500D03*
G54D13*
X12250Y-12850D03*
G54D14*
X11250Y-12850D03*
X10250Y-12850D03*
X09250Y-12850D03*
X08250Y-12850D03*
X07250Y-12850D03*
X06250Y-12850D03*
X06250Y-15850D03*
X07250Y-15850D03*
X08250Y-15850D03*
X09250Y-15850D03*
X10250Y-15850D03*
X11250Y-15850D03*
X12250Y-15850D03*
G54D15*
X07343Y-07062D03*
X08343Y-07062D03*
X09343Y-07062D03*
X10343Y-07062D03*
X11343Y-07062D03*
X12343Y-07062D03*
X07343Y-00812D03*
X08343Y-00812D03*
X09343Y-00812D03*
X10343Y-00812D03*
X11343Y-00812D03*
X12343Y-00812D03*
X13225Y-06975D03*
X17225Y-06975D03*
G54D16*
X14825Y-06975D03*
X15625Y-06975D03*
G54D15*
X12250Y-16725D03*
X08250Y-16725D03*
G54D16*
X10650Y-16725D03*
X09850Y-16725D03*
G54D17*
X13140Y-13250D03*
X13390Y-13250D03*
X13650Y-13250D03*
X13900Y-13250D03*
X14160Y-13250D03*
X14415Y-13250D03*
X14670Y-13250D03*
X14670Y-15450D03*
X14415Y-15450D03*
X14160Y-15450D03*
X13900Y-15450D03*
X13645Y-15450D03*
X13390Y-15450D03*
X13135Y-15450D03*
G54D11*
X00825Y-09000D03*
G54D12*
X00825Y-10000D03*
X00825Y-11000D03*
X00825Y-12000D03*
X00825Y-13000D03*
X00825Y-14000D03*
X00825Y-15000D03*
G54D11*
X18775Y-09000D03*
G54D12*
X18775Y-10000D03*
X18775Y-11000D03*
X18775Y-12000D03*
X18775Y-13000D03*
X18775Y-14000D03*
X18775Y-15000D03*
G54D18*
X18225Y-04225D03*
X18225Y-03475D03*
G54D11*
X07343Y-18504D03*
G54D12*
X08343Y-18504D03*
X09343Y-18504D03*
X10343Y-18504D03*
X11343Y-18504D03*
X12343Y-18504D03*
G54D15*
X06450Y-10700D03*
X02450Y-10700D03*
X06450Y-11750D03*
X02450Y-11750D03*
X10550Y-11075D03*
X14550Y-11075D03*
X16750Y-09550D03*
X16750Y-13550D03*
G54D11*
X06250Y-09450D03*
G54D12*
X05250Y-09450D03*
X05250Y-08450D03*
G54D11*
X08900Y-09450D03*
G54D12*
X07900Y-09450D03*
X07900Y-08450D03*
G54D11*
X11550Y-09400D03*
G54D12*
X10550Y-09400D03*
X10550Y-08400D03*
G54D11*
X14200Y-09400D03*
G54D12*
X13200Y-09400D03*
X13200Y-08400D03*
G54D13*
X11250Y-02500D03*
G54D14*
X12250Y-02500D03*
X13250Y-02500D03*
X14250Y-02500D03*
X15250Y-02500D03*
X16250Y-02500D03*
X17250Y-02500D03*
X18250Y-02500D03*
X18250Y-05500D03*
X17250Y-05500D03*
X16250Y-05500D03*
X15250Y-05500D03*
X14250Y-05500D03*
X13250Y-05500D03*
X12250Y-05500D03*
X11250Y-05500D03*
G54D15*
X00775Y-06750D03*
X04775Y-06750D03*
G54D16*
X02375Y-06750D03*
X03175Y-06750D03*
G54D15*
X00800Y-02800D03*
X04800Y-02800D03*
G54D16*
X02400Y-02800D03*
X03200Y-02800D03*
G54D15*
X00800Y-03800D03*
X04800Y-03800D03*
G54D16*
X02400Y-03800D03*
X03200Y-03800D03*
G54D15*
X00775Y-04775D03*
X04775Y-04775D03*
G54D16*
X02375Y-04775D03*
X03175Y-04775D03*
G54D15*
X00800Y-05750D03*
X04800Y-05750D03*
G54D16*
X02400Y-05750D03*
X03200Y-05750D03*
G54D15*
X00789Y-01775D03*
X04789Y-01775D03*
G54D16*
X02389Y-01775D03*
X03189Y-01775D03*
G54D15*
X00775Y-00775D03*
X04775Y-00775D03*
G54D16*
X02375Y-00775D03*
X03175Y-00775D03*
G54D15*
X00800Y-07750D03*
X04800Y-07750D03*
G54D16*
X02400Y-07750D03*
X03200Y-07750D03*
M02*
